<svg id="svg" version="1.1" xmlns="http://www.w3.org/2000/svg" xmlns:xlink="http://www.w3.org/1999/xlink" width="400" height="265.80645161290323" viewBox="0, 0, 400,265.80645161290323"><g id="svgg"><path id="path0" d="M311.044 21.919 C 309.878 22.271,307.843 22.644,306.523 22.749 C 304.015 22.946,301.663 23.455,300.532 24.044 C 295.998 26.406,292.949 28.748,291.041 31.332 C 290.211 32.457,288.499 34.395,287.235 35.638 C 284.911 37.925,283.252 40.325,281.441 44.014 C 280.940 45.037,280.294 46.205,280.006 46.609 C 279.206 47.732,278.982 48.768,278.714 52.574 C 278.509 55.492,278.348 56.337,277.751 57.627 C 276.769 59.749,276.780 61.317,277.796 63.697 C 278.541 65.444,278.590 65.771,278.590 69.016 C 278.591 74.815,277.600 76.206,272.503 77.567 C 271.170 77.922,269.651 78.496,269.127 78.842 C 268.117 79.508,265.979 80.317,265.217 80.322 C 264.966 80.324,264.222 80.640,263.564 81.025 C 262.906 81.410,260.944 82.435,259.205 83.303 C 257.466 84.170,255.192 85.392,254.152 86.017 C 253.112 86.643,250.508 88.072,248.365 89.194 C 246.223 90.316,243.709 91.842,242.780 92.585 C 240.443 94.455,239.313 95.072,236.736 95.884 C 234.561 96.570,230.719 98.372,229.122 99.455 C 227.799 100.353,220.159 102.667,215.426 103.603 C 214.182 103.849,212.575 104.283,211.853 104.567 C 211.132 104.851,208.672 105.421,206.387 105.834 C 204.102 106.247,201.758 106.827,201.179 107.122 C 200.600 107.417,199.230 107.931,198.135 108.263 C 196.205 108.849,189.449 111.636,187.293 112.736 C 185.420 113.692,176.873 114.316,168.393 114.116 C 163.827 114.009,161.685 110.520,160.076 100.571 C 159.057 94.264,159.625 91.244,162.379 88.324 C 163.856 86.759,164.894 84.980,164.894 84.015 C 164.894 83.671,163.077 82.816,161.295 82.321 C 158.717 81.605,158.318 81.387,157.599 80.301 C 156.267 78.288,157.092 76.447,159.976 74.996 C 162.822 73.564,166.719 70.585,167.623 69.149 C 167.945 68.637,168.589 67.797,169.054 67.282 C 169.518 66.767,170.324 65.450,170.843 64.356 C 171.636 62.687,172.105 62.101,173.754 60.714 C 174.836 59.805,176.187 58.383,176.757 57.555 L 177.793 56.050 177.788 53.223 C 177.783 49.930,177.429 49.055,175.575 47.752 L 174.447 46.959 166.209 46.787 C 161.677 46.693,157.499 46.702,156.924 46.807 C 154.654 47.222,151.148 51.248,149.955 54.810 C 149.354 56.603,146.746 59.575,145.402 59.995 C 145.079 60.096,143.916 60.750,142.819 61.448 C 140.830 62.713,140.820 62.715,138.963 62.580 C 135.749 62.345,130.813 63.122,128.191 64.275 C 125.258 65.565,122.990 65.768,121.275 64.893 C 120.186 64.337,119.991 64.321,117.708 64.603 C 116.379 64.767,113.019 64.949,110.239 65.008 C 104.602 65.127,103.327 65.350,98.620 67.044 C 96.266 67.892,94.912 68.201,92.394 68.467 C 88.607 68.867,86.000 69.984,81.782 73.015 C 80.465 73.961,78.730 74.984,77.926 75.287 C 76.293 75.903,75.285 76.600,73.138 78.602 C 71.892 79.765,69.884 80.996,66.090 82.926 C 65.652 83.149,64.814 83.652,64.229 84.043 C 63.644 84.434,62.524 85.098,61.741 85.519 C 60.718 86.069,59.987 86.748,59.142 87.933 C 58.495 88.839,56.641 90.811,55.023 92.315 C 51.802 95.309,50.049 97.838,49.448 100.359 C 48.710 103.454,46.720 106.687,43.055 110.743 C 41.951 111.965,40.361 114.768,38.437 118.883 C 38.061 119.687,37.357 120.898,36.873 121.573 C 36.301 122.370,35.872 123.396,35.650 124.499 C 35.238 126.544,33.527 130.431,32.144 132.465 C 30.995 134.153,29.255 138.488,29.255 139.662 C 29.255 140.094,28.939 141.969,28.552 143.828 C 27.895 146.991,27.869 147.370,28.156 149.734 C 28.637 153.702,28.571 154.433,27.527 156.612 C 26.254 159.267,26.245 161.027,27.488 164.129 C 27.979 165.354,28.596 167.015,28.859 167.819 C 29.122 168.624,29.664 169.940,30.064 170.745 C 30.463 171.549,30.934 172.659,31.109 173.212 C 31.285 173.764,31.723 174.566,32.083 174.993 C 32.443 175.421,33.628 177.563,34.716 179.752 C 36.944 184.236,38.991 186.500,42.762 188.653 C 43.744 189.213,44.727 189.823,44.947 190.007 C 45.166 190.191,46.094 190.788,47.008 191.333 C 47.922 191.879,48.670 192.424,48.670 192.545 C 48.670 193.199,52.991 195.950,54.455 196.228 C 58.715 197.038,63.801 197.016,69.016 196.167 C 70.332 195.952,72.118 195.716,72.983 195.642 C 74.566 195.507,78.525 193.831,80.379 192.511 C 81.241 191.897,82.851 191.815,85.248 192.263 C 86.123 192.426,86.825 192.382,87.717 192.108 C 88.546 191.852,91.097 191.653,95.346 191.513 C 102.467 191.277,103.004 191.148,104.884 189.212 C 106.392 187.659,106.758 186.626,106.815 183.762 C 106.872 180.840,107.182 179.911,108.774 177.897 C 110.464 175.759,110.784 174.930,111.648 170.451 C 113.076 163.055,112.911 163.189,120.706 163.083 C 129.837 162.958,132.951 163.698,138.154 167.234 C 141.223 169.319,143.152 168.921,145.576 165.702 L 146.869 163.985 146.764 158.862 C 146.646 153.112,146.612 153.004,144.488 151.501 L 143.415 150.742 141.963 151.164 C 141.165 151.396,140.043 151.963,139.471 152.424 C 137.408 154.088,136.809 154.220,131.383 154.218 C 127.241 154.216,126.147 154.301,124.468 154.761 C 118.629 156.358,115.457 153.169,117.665 147.922 C 118.031 147.054,118.514 145.107,118.741 143.595 C 119.061 141.451,119.312 140.619,119.882 139.808 C 121.917 136.913,125.131 130.778,124.911 130.205 C 124.153 128.229,118.706 126.962,115.051 127.911 C 112.766 128.504,110.665 128.600,108.585 128.206 C 106.476 127.806,103.704 128.723,102.829 130.110 C 102.618 130.444,102.775 130.804,103.531 131.727 C 104.842 133.327,105.041 134.427,105.033 140.027 C 105.017 149.965,104.017 152.006,99.202 151.928 C 97.812 151.906,94.425 151.887,91.673 151.887 C 85.704 151.887,84.947 151.651,81.981 148.866 C 79.148 146.204,79.010 146.139,77.393 146.676 C 75.718 147.232,75.550 147.492,74.205 151.596 C 71.288 160.495,73.683 165.115,79.277 161.379 C 81.240 160.069,82.436 159.823,85.904 160.016 C 87.543 160.107,89.693 159.995,92.021 159.697 C 93.996 159.445,96.068 159.181,96.626 159.111 C 100.364 158.642,101.937 161.974,99.768 165.765 C 99.319 166.550,98.654 168.304,98.290 169.663 C 97.395 173.006,96.726 173.901,92.711 177.122 C 90.540 178.864,88.686 181.192,87.973 183.071 C 87.023 185.575,86.881 185.632,80.851 185.940 C 67.257 186.635,67.513 186.612,65.179 187.336 C 59.449 189.115,54.089 188.192,51.064 184.905 C 43.256 176.422,42.209 174.979,41.248 171.370 C 40.825 169.783,40.293 168.052,40.065 167.523 C 39.090 165.260,38.109 155.124,38.530 151.663 C 38.704 150.236,38.972 147.753,39.127 146.144 C 39.344 143.880,39.578 142.857,40.163 141.622 C 40.976 139.903,41.336 138.661,41.624 136.570 C 41.734 135.772,42.317 134.284,43.081 132.846 C 43.781 131.530,44.433 129.918,44.530 129.264 C 44.720 127.982,46.627 123.398,47.824 121.346 C 48.542 120.115,51.011 114.915,52.024 112.500 C 52.301 111.842,53.424 110.084,54.521 108.593 C 55.618 107.103,56.935 105.130,57.447 104.210 C 57.959 103.290,59.022 101.876,59.810 101.069 C 60.598 100.262,62.537 97.866,64.120 95.745 C 65.703 93.624,67.256 91.554,67.572 91.144 C 67.888 90.735,69.004 89.822,70.052 89.114 C 71.100 88.407,72.595 87.285,73.374 86.620 C 74.272 85.853,75.923 84.909,77.887 84.038 C 82.689 81.909,87.247 79.613,88.564 78.659 C 89.222 78.183,90.419 77.628,91.223 77.427 C 92.028 77.226,93.734 76.656,95.014 76.161 C 96.295 75.666,98.389 75.018,99.669 74.722 C 100.948 74.425,103.222 73.752,104.722 73.225 C 108.306 71.966,111.126 72.016,113.972 73.389 C 115.486 74.119,116.176 74.273,118.839 74.477 C 124.547 74.913,127.408 75.449,128.896 76.359 C 130.577 77.388,132.750 77.955,134.840 77.911 C 141.787 77.765,141.014 77.408,142.662 81.527 C 144.375 85.806,144.385 85.888,144.559 96.042 C 144.724 105.671,145.026 108.709,146.015 110.647 C 146.304 111.214,146.651 112.456,146.786 113.406 C 147.070 115.414,147.865 116.724,150.035 118.760 C 152.842 121.394,154.560 122.226,160.505 123.836 C 161.822 124.192,163.916 124.824,165.160 125.239 C 167.191 125.919,170.926 126.573,177.335 127.374 C 180.632 127.786,184.923 126.765,188.240 124.779 C 190.320 123.534,191.252 123.258,194.663 122.873 C 196.169 122.703,198.253 122.221,199.873 121.667 C 201.358 121.160,203.069 120.745,203.674 120.745 C 205.062 120.745,207.677 119.766,210.827 118.069 C 212.333 117.257,214.279 116.482,215.880 116.057 C 217.312 115.676,218.903 115.155,219.415 114.897 C 219.927 114.640,221.064 114.225,221.941 113.976 C 224.068 113.373,228.533 111.338,230.186 110.220 C 230.918 109.725,232.209 109.083,233.055 108.793 C 233.902 108.503,234.920 108.038,235.316 107.759 C 236.794 106.720,237.932 106.305,239.911 106.084 C 243.353 105.699,244.933 104.670,247.594 101.081 C 249.431 98.603,251.744 96.664,253.777 95.896 C 258.940 93.948,262.498 91.934,266.489 88.700 C 267.294 88.048,268.331 87.210,268.793 86.837 C 270.205 85.699,274.493 83.810,276.091 83.622 C 279.965 83.166,283.346 87.503,283.816 93.530 C 283.939 95.108,284.284 97.133,284.583 98.030 C 285.757 101.560,283.029 104.541,278.643 104.518 C 277.986 104.515,273.640 106.041,271.011 107.198 C 268.438 108.330,267.504 108.388,265.160 107.560 C 262.745 106.707,261.011 106.671,259.038 107.434 C 258.236 107.743,256.769 108.171,255.779 108.384 C 252.414 109.108,250.997 110.282,248.577 114.349 C 247.912 115.467,247.129 116.598,246.838 116.862 C 246.285 117.362,245.992 118.285,245.953 119.643 C 245.923 120.701,248.253 123.851,250.031 125.156 C 252.350 126.858,254.562 126.327,255.843 123.761 C 257.563 120.317,261.545 118.045,267.154 117.306 C 269.105 117.049,269.916 116.790,271.538 115.902 C 272.632 115.303,274.906 114.360,276.591 113.806 C 278.276 113.253,280.370 112.542,281.245 112.227 C 286.933 110.178,289.557 111.850,290.287 117.988 C 290.682 121.315,291.071 122.663,292.690 126.318 C 295.525 132.721,292.328 136.478,283.378 137.261 C 281.622 137.414,279.289 137.621,278.191 137.719 C 272.664 138.217,267.570 137.379,265.564 135.643 C 261.704 132.302,256.883 134.607,256.117 140.160 C 255.042 147.954,256.107 155.547,258.443 156.743 C 261.255 158.182,263.106 157.351,265.478 153.587 C 266.666 151.701,267.125 151.510,271.809 150.944 C 275.086 150.548,276.923 149.887,279.341 148.233 C 280.046 147.750,282.591 146.379,284.996 145.185 C 293.689 140.872,295.920 141.972,296.826 151.018 C 297.432 157.075,296.386 158.809,291.577 159.721 C 288.780 160.252,287.851 160.563,286.436 161.445 C 284.937 162.380,282.776 162.785,280.364 162.583 C 278.001 162.385,276.448 162.772,274.551 164.031 L 273.071 165.014 269.846 165.065 C 264.118 165.156,262.379 165.790,260.672 168.408 C 260.072 169.327,259.196 170.534,258.724 171.088 C 256.784 173.372,258.121 179.116,261.002 180.873 C 262.920 182.042,264.543 181.464,266.202 179.021 C 267.657 176.878,268.813 175.953,270.905 175.257 C 271.899 174.926,273.250 174.314,273.908 173.897 C 275.393 172.955,276.903 172.905,280.206 173.690 L 282.527 174.241 285.113 173.041 C 289.665 170.929,295.055 170.517,296.457 172.175 C 298.285 174.335,298.529 175.398,298.623 181.584 C 298.740 189.377,298.185 190.627,294.390 191.112 C 292.738 191.323,291.844 191.716,291.090 192.563 C 290.798 192.892,289.840 193.508,288.963 193.932 L 287.367 194.705 283.511 194.530 C 279.331 194.341,278.043 194.532,276.359 195.591 C 275.831 195.923,274.741 196.408,273.936 196.671 C 269.453 198.132,264.689 200.228,263.235 201.380 C 262.686 201.815,261.439 202.610,260.464 203.146 C 257.962 204.524,257.581 205.102,258.123 206.696 C 259.047 209.405,262.944 211.956,266.174 211.965 C 267.866 211.970,269.635 212.881,271.011 214.456 C 272.226 215.849,274.741 218.098,276.708 219.552 C 277.305 219.993,278.630 221.194,279.654 222.221 C 281.507 224.080,282.037 224.484,287.652 228.313 C 289.272 229.418,291.071 230.829,291.649 231.450 C 292.227 232.072,293.296 233.021,294.023 233.561 C 299.635 237.724,300.902 238.768,301.752 239.925 C 302.936 241.539,304.214 242.433,307.893 244.221 L 310.752 245.612 314.852 245.707 C 321.027 245.852,321.612 245.478,323.127 240.429 C 323.455 239.333,323.940 238.015,324.203 237.498 C 324.467 236.981,324.888 235.484,325.139 234.170 C 325.639 231.560,328.184 225.829,329.276 224.857 C 329.599 224.570,330.325 223.378,330.891 222.207 C 331.929 220.060,333.582 217.180,336.156 213.032 C 337.790 210.399,338.885 208.270,339.360 206.805 C 339.919 205.082,341.363 202.069,342.430 200.401 C 342.983 199.538,343.969 197.703,344.622 196.324 C 345.276 194.944,346.286 192.990,346.868 191.981 C 347.450 190.971,348.103 189.469,348.319 188.643 C 348.535 187.817,349.191 186.187,349.777 185.021 C 351.635 181.326,352.021 177.530,350.725 175.700 C 350.043 174.737,347.965 173.404,347.146 173.404 C 346.539 173.404,339.199 175.837,337.126 176.724 C 336.555 176.969,334.999 177.404,333.669 177.691 C 332.151 178.018,330.759 178.514,329.932 179.022 C 329.208 179.468,327.652 180.131,326.475 180.496 C 325.298 180.861,323.548 181.509,322.585 181.936 C 319.648 183.240,317.670 182.922,316.840 181.014 C 315.634 178.246,316.134 164.574,317.475 163.626 C 320.868 161.229,324.014 159.840,326.054 159.840 C 326.295 159.840,327.038 159.494,327.706 159.070 C 328.374 158.647,329.914 158.049,331.128 157.742 C 332.527 157.388,333.829 156.847,334.686 156.263 C 335.430 155.757,336.917 155.102,337.995 154.808 C 339.072 154.513,340.363 154.031,340.864 153.735 C 343.129 152.399,344.774 152.095,351.489 151.771 C 358.551 151.431,358.402 151.473,359.317 149.584 C 360.701 146.725,358.368 135.706,355.760 132.779 C 354.535 131.405,351.910 132.001,350.783 133.910 C 349.927 135.359,347.515 138.620,346.954 139.085 C 346.703 139.294,346.149 139.971,345.723 140.590 C 344.913 141.767,343.408 142.528,341.090 142.934 C 340.505 143.036,339.249 143.359,338.298 143.652 C 337.265 143.970,335.231 144.270,333.245 144.398 C 329.063 144.668,328.667 144.850,327.669 146.963 C 326.394 149.662,322.985 151.616,318.617 152.152 C 313.726 152.753,312.616 151.899,312.235 147.251 C 312.126 145.911,311.826 143.922,311.570 142.832 C 310.230 137.141,314.303 132.858,322.074 131.784 C 324.610 131.434,325.476 131.186,327.142 130.335 C 329.831 128.961,333.271 127.836,337.408 126.978 C 341.532 126.123,342.335 125.703,343.883 123.589 C 345.456 121.442,346.678 120.755,348.936 120.748 C 353.752 120.731,356.413 117.978,355.025 114.446 C 354.863 114.034,354.446 112.647,354.098 111.363 C 352.986 107.267,350.693 104.193,348.527 103.896 C 346.900 103.673,346.878 103.691,344.848 106.782 C 343.887 108.245,342.912 109.711,342.681 110.041 C 342.124 110.835,340.546 111.618,338.578 112.077 C 335.807 112.724,333.281 114.733,330.053 118.861 C 328.619 120.695,324.936 121.063,322.736 119.592 C 319.371 117.343,317.752 117.923,314.690 122.473 C 312.125 126.288,307.046 129.381,305.559 128.035 C 304.860 127.402,304.255 125.225,304.255 123.340 C 304.255 121.153,303.759 118.194,303.129 116.622 C 301.397 112.301,303.085 107.904,307.121 106.225 C 308.105 105.816,309.349 105.143,309.886 104.729 C 311.285 103.653,312.931 102.987,315.327 102.528 C 316.478 102.308,318.438 101.839,319.681 101.486 C 320.924 101.132,322.959 100.769,324.202 100.677 C 325.708 100.567,326.774 100.336,327.394 99.987 C 329.602 98.742,331.326 98.090,333.346 97.734 C 334.534 97.524,336.365 96.990,337.416 96.546 C 339.486 95.672,342.013 95.437,343.435 95.987 C 348.486 97.941,351.788 94.225,350.688 87.823 C 350.419 86.256,350.107 83.358,349.995 81.383 C 349.633 75.032,348.345 70.485,346.536 69.175 C 343.735 67.146,340.884 68.849,339.202 73.555 C 338.685 75.002,338.130 76.344,337.969 76.539 C 337.289 77.358,334.334 79.398,332.851 80.072 C 331.970 80.472,330.918 81.061,330.512 81.382 C 330.106 81.702,328.958 82.361,327.962 82.846 C 325.011 84.282,323.073 86.072,322.337 88.041 C 321.604 90.002,319.930 91.349,318.484 91.141 C 318.045 91.079,316.777 90.880,315.666 90.700 C 312.880 90.249,311.426 91.030,309.310 94.114 C 306.542 98.149,301.679 97.165,300.282 92.287 C 299.583 89.844,298.975 88.396,298.477 87.982 C 296.923 86.692,296.553 84.164,297.478 81.150 C 298.195 78.810,298.201 78.737,297.761 77.635 C 295.848 72.854,297.465 70.085,303.723 67.420 C 305.950 66.472,309.968 64.271,310.841 63.522 C 311.319 63.111,312.097 62.577,312.570 62.334 C 316.341 60.399,320.237 57.273,322.144 54.654 C 322.889 53.630,323.771 52.493,324.102 52.128 C 327.958 47.878,329.953 40.301,328.583 35.118 C 327.462 30.882,327.095 30.234,323.976 26.995 C 319.076 21.904,315.606 20.542,311.044 21.919 M314.831 31.815 C 318.920 34.317,317.726 42.858,312.385 49.304 C 309.758 52.474,305.795 56.211,303.167 57.995 C 302.346 58.553,300.839 59.765,299.819 60.688 C 294.025 65.933,292.892 66.487,291.332 64.836 L 290.160 63.595 290.160 57.480 C 290.160 49.915,290.828 46.298,292.735 43.546 C 293.120 42.991,293.761 41.411,294.160 40.034 C 295.308 36.073,297.956 32.576,300.250 31.993 C 305.635 30.623,312.741 30.537,314.831 31.815 M144.180 67.791 C 145.361 68.747,143.707 70.441,142.318 69.697 C 141.203 69.101,141.115 68.409,142.079 67.821 C 143.160 67.162,143.399 67.159,144.180 67.791 " stroke="none" fill="#181918" fill-rule="evenodd"></path></g></svg>