<svg id="svg" version="1.1" xmlns="http://www.w3.org/2000/svg" xmlns:xlink="http://www.w3.org/1999/xlink" width="400" height="350.9433962264151" viewBox="0, 0, 400,350.9433962264151"><g id="svgg"><path id="path0" d="M316.799 46.777 C 315.946 46.967,314.647 47.503,313.912 47.967 C 312.350 48.953,306.959 51.340,303.997 52.357 C 293.191 56.067,289.018 61.182,282.530 78.665 C 280.662 83.700,274.582 87.650,266.888 88.829 C 259.467 89.967,257.671 90.320,254.537 91.261 C 250.208 92.560,246.212 94.209,243.640 95.758 C 240.962 97.372,232.331 100.790,230.936 100.790 C 229.613 100.790,227.230 101.443,223.881 102.722 C 219.927 104.231,217.060 103.941,211.547 101.472 C 206.644 99.276,205.225 92.535,207.049 80.109 C 208.063 73.202,207.928 70.849,206.384 68.509 C 205.928 67.818,204.922 65.909,204.149 64.267 C 200.317 56.129,194.626 55.608,191.895 63.146 C 191.567 64.052,190.696 66.137,189.961 67.779 C 187.293 73.735,187.310 73.899,191.182 79.393 C 192.078 80.665,192.441 81.725,192.928 84.485 C 193.266 86.403,193.798 89.042,194.109 90.350 C 194.754 93.058,194.535 94.918,192.977 99.964 C 191.549 104.589,191.889 104.414,185.216 103.971 C 173.464 103.191,172.798 102.187,173.287 85.992 C 173.565 76.803,173.562 76.791,170.632 73.668 C 167.099 69.901,161.409 68.346,157.840 70.171 C 153.770 72.253,153.132 75.233,155.398 81.573 C 157.393 87.155,158.039 98.846,156.484 101.221 C 155.084 103.357,153.635 104.041,149.825 104.363 C 145.646 104.716,142.838 105.429,139.947 106.870 C 138.788 107.447,135.865 108.592,133.450 109.413 C 131.036 110.235,128.112 111.310,126.953 111.802 C 125.795 112.294,123.740 112.874,122.388 113.091 C 115.437 114.207,111.076 116.248,104.570 121.429 C 102.394 123.161,99.711 125.004,98.606 125.523 C 95.979 126.758,92.471 130.573,90.650 134.176 C 89.911 135.637,88.854 137.606,88.300 138.550 C 87.746 139.495,86.791 141.697,86.178 143.444 C 85.564 145.191,84.459 148.121,83.722 149.956 L 82.381 153.292 82.367 158.948 L 82.353 164.605 85.124 170.011 C 88.285 176.179,90.924 179.786,93.536 181.509 C 96.146 183.230,99.737 186.835,99.737 187.734 C 99.737 189.397,99.000 190.650,97.788 191.050 C 96.283 191.547,96.369 191.599,90.911 186.918 C 89.729 185.904,88.626 185.075,88.460 185.075 C 88.294 185.075,87.405 184.620,86.485 184.064 C 85.564 183.507,83.971 182.780,82.943 182.447 L 81.075 181.841 78.899 182.913 C 77.276 183.712,76.501 184.352,75.851 185.433 C 75.371 186.230,74.329 187.859,73.535 189.052 C 69.226 195.530,69.082 198.954,72.973 202.405 C 74.017 203.331,76.172 202.906,79.017 201.211 C 83.557 198.507,86.886 198.648,91.310 201.733 C 96.546 205.385,96.988 210.031,92.638 215.703 C 91.939 216.614,91.042 218.231,90.643 219.295 C 88.774 224.292,85.566 225.147,78.049 222.651 C 75.128 221.682,73.206 221.247,71.845 221.247 C 68.621 221.247,59.296 218.918,57.770 217.732 C 53.853 214.687,48.441 212.791,47.005 213.960 C 43.250 217.015,43.280 224.486,47.078 232.309 C 47.890 233.982,48.745 236.538,49.192 238.627 C 49.605 240.556,50.423 243.084,51.009 244.245 C 51.596 245.407,52.441 247.431,52.888 248.744 C 53.335 250.057,54.241 252.032,54.901 253.134 C 55.561 254.235,56.380 256.005,56.720 257.068 C 57.505 259.517,58.121 260.730,60.496 264.506 C 61.682 266.392,62.785 268.734,63.389 270.651 C 64.633 274.600,65.329 275.971,67.668 279.084 C 68.773 280.555,70.045 282.830,70.713 284.531 C 74.795 294.929,82.050 299.809,88.674 296.613 C 90.953 295.513,95.805 290.885,98.492 287.246 C 101.546 283.112,103.393 281.281,106.135 279.674 C 107.638 278.793,108.957 277.927,109.067 277.749 C 109.396 277.216,111.796 276.107,113.183 275.847 C 113.896 275.713,115.390 275.044,116.502 274.361 C 117.615 273.678,119.290 272.739,120.226 272.276 C 121.161 271.812,122.707 270.896,123.662 270.239 C 124.617 269.582,126.576 268.478,128.016 267.786 C 130.042 266.811,131.502 265.698,134.470 262.863 C 136.580 260.848,139.387 258.496,140.707 257.635 C 153.195 249.495,155.153 235.171,143.635 236.211 C 142.076 236.352,140.668 236.239,139.194 235.856 C 138.007 235.547,136.506 235.294,135.858 235.294 C 135.210 235.294,132.704 234.667,130.290 233.901 C 126.970 232.848,125.044 232.452,122.388 232.275 C 112.656 231.627,107.527 228.858,107.180 224.065 C 106.891 220.065,109.069 214.153,111.241 213.044 C 118.119 209.533,127.418 212.295,131.867 219.172 C 134.826 223.746,139.670 224.048,142.890 219.859 C 150.434 210.045,148.950 202.402,140.299 206.507 C 139.140 207.057,137.216 207.693,136.024 207.920 L 133.856 208.334 130.291 206.449 C 122.155 202.150,121.037 195.658,126.717 185.703 C 127.300 184.681,128.163 182.815,128.636 181.554 C 129.109 180.294,129.972 178.477,130.553 177.516 C 131.134 176.555,131.879 174.937,132.209 173.920 C 132.952 171.625,134.828 168.793,137.746 165.560 C 141.956 160.896,142.450 158.821,139.921 156.415 C 138.468 155.033,137.614 154.873,131.706 154.873 C 126.577 154.873,123.637 154.242,122.054 152.803 C 121.658 152.444,120.641 151.720,119.794 151.194 C 118.947 150.668,117.660 149.632,116.934 148.891 C 116.097 148.037,115.054 147.400,114.084 147.149 C 113.243 146.932,112.298 146.680,111.985 146.589 C 111.297 146.391,109.219 148.632,109.219 149.572 C 109.219 149.927,109.627 151.778,110.125 153.686 C 112.789 163.883,109.795 174.539,104.265 174.539 C 102.902 174.539,96.764 165.553,95.877 162.259 C 94.826 158.356,97.420 149.546,101.101 144.513 C 101.808 143.547,102.698 142.318,103.080 141.783 C 103.463 141.247,105.593 139.741,107.814 138.437 C 111.573 136.230,111.966 135.894,113.493 133.586 C 116.781 128.617,121.161 126.261,129.412 125.021 C 133.243 124.445,134.216 123.974,137.003 121.345 C 140.633 117.921,140.742 117.883,147.618 117.712 L 153.533 117.565 155.727 119.813 C 158.549 122.706,159.321 125.270,158.952 130.527 C 158.672 134.511,156.557 145.031,155.576 147.319 C 154.090 150.786,155.177 155.926,157.396 155.926 C 157.579 155.926,158.943 156.494,160.427 157.187 C 170.708 161.992,176.706 156.473,173.269 145.373 C 171.854 140.802,170.662 127.311,171.323 123.357 C 172.989 113.393,178.210 110.286,184.817 115.325 C 185.468 115.822,187.048 116.704,188.328 117.284 C 193.757 119.746,195.044 123.031,195.414 135.382 C 195.690 144.570,195.577 145.163,192.684 149.700 C 188.115 156.869,188.001 160.699,192.295 162.800 L 194.258 163.761 197.129 163.145 C 200.325 162.460,208.854 159.415,210.623 158.327 C 214.436 155.982,215.825 151.008,213.431 148.276 C 211.787 146.400,211.219 143.657,210.697 135.087 C 210.463 131.246,210.052 127.794,209.635 126.164 C 208.403 121.344,208.795 119.349,211.495 116.696 L 213.345 114.879 217.208 114.345 C 221.989 113.684,227.912 112.304,230.078 111.345 C 230.975 110.948,233.346 110.370,235.346 110.061 C 240.382 109.282,241.424 108.934,244.265 107.079 C 245.631 106.187,247.844 105.093,249.184 104.647 C 252.911 103.407,255.315 102.264,257.243 100.815 C 259.132 99.395,261.831 98.222,264.577 97.626 C 265.520 97.422,267.377 96.609,268.705 95.821 C 274.086 92.624,280.299 91.540,283.268 93.280 C 285.673 94.690,285.915 95.447,286.107 102.163 C 286.334 110.096,287.556 113.666,292.193 119.942 C 292.912 120.914,293.856 122.416,294.292 123.278 C 294.727 124.141,295.598 125.558,296.227 126.427 C 297.265 127.863,298.257 129.621,301.040 134.960 C 301.564 135.965,302.305 137.656,302.687 138.718 C 303.069 139.781,303.639 141.355,303.954 142.216 C 305.378 146.120,305.266 153.888,303.737 157.304 C 300.810 163.842,300.664 165.558,302.910 167.029 C 305.278 168.581,310.792 165.035,315.189 159.133 C 315.961 158.096,317.508 156.138,318.626 154.783 C 323.291 149.128,324.233 145.575,322.347 140.739 C 321.990 139.823,321.286 137.611,320.784 135.823 C 318.342 127.135,311.549 117.317,305.531 113.776 C 301.401 111.345,299.121 108.135,298.162 103.400 C 297.930 102.255,297.220 100.132,296.585 98.683 C 295.184 95.488,295.251 92.733,296.769 91.110 C 299.516 88.174,307.026 84.296,312.729 82.868 C 314.854 82.336,317.067 81.715,317.646 81.488 C 320.486 80.374,322.706 80.123,326.474 80.490 C 334.446 81.267,343.385 76.995,346.340 70.996 C 347.507 68.628,347.496 58.960,346.323 55.581 C 344.310 49.784,342.527 47.451,339.593 46.773 C 337.381 46.263,319.093 46.266,316.799 46.777 M331.405 56.398 C 335.814 58.936,336.421 64.458,332.750 68.639 C 330.485 71.219,329.274 71.747,324.671 72.162 C 321.764 72.424,318.984 73.156,317.390 74.078 C 314.451 75.779,307.524 77.900,305.788 77.630 C 297.855 76.398,301.162 61.790,309.771 60.034 C 310.819 59.821,314.205 58.759,317.296 57.676 C 325.349 54.853,328.263 54.589,331.405 56.398 M266.198 153.152 C 264.170 153.932,261.554 154.873,260.384 155.242 C 259.214 155.611,257.889 156.304,257.440 156.782 C 256.990 157.260,255.998 158.084,255.236 158.613 C 252.346 160.615,250.318 166.639,251.281 170.357 C 252.676 175.739,253.946 177.315,257.594 178.193 C 260.034 178.780,266.900 181.633,269.094 182.970 C 270.398 183.766,273.371 183.908,275.817 183.292 C 286.184 180.681,287.537 201.438,277.707 212.291 C 276.483 213.644,274.260 216.201,272.768 217.974 C 270.599 220.552,269.666 221.376,268.115 222.086 C 266.933 222.628,264.902 224.150,262.912 225.987 C 261.117 227.645,259.038 229.415,258.293 229.921 C 257.548 230.428,255.483 232.066,253.704 233.561 C 250.522 236.236,250.416 236.292,247.009 237.074 C 242.256 238.165,241.581 238.733,241.081 242.072 C 240.736 244.373,241.600 246.672,244.631 251.522 C 247.959 256.846,248.145 257.223,248.852 260.092 C 249.180 261.422,250.158 263.933,251.025 265.672 C 254.988 273.621,255.775 276.647,254.596 279.399 C 254.210 280.300,253.658 282.558,253.370 284.417 C 251.897 293.909,251.539 294.447,248.692 291.439 C 245.794 288.377,243.260 283.485,241.929 278.384 C 241.365 276.221,240.596 274.056,240.221 273.573 C 239.846 273.090,238.799 271.625,237.896 270.317 C 233.263 263.609,228.988 262.554,224.226 266.944 C 220.384 270.485,220.643 274.298,225.071 279.358 C 226.027 280.450,227.386 282.243,228.092 283.341 C 229.828 286.045,232.174 289.642,232.924 290.750 C 233.262 291.250,233.799 292.371,234.116 293.240 C 236.419 299.544,238.292 303.829,239.335 305.180 C 244.488 311.849,244.406 311.544,244.417 324.113 C 244.428 337.536,244.954 339.291,249.109 339.770 L 251.160 340.006 253.553 337.606 C 255.767 335.385,256.014 334.982,256.859 332.201 C 257.361 330.548,258.174 328.651,258.665 327.986 C 259.646 326.660,263.900 320.269,266.016 316.945 C 268.357 313.265,270.017 311.533,272.306 310.385 C 273.486 309.792,275.716 308.471,277.261 307.447 C 278.806 306.424,281.572 304.883,283.406 304.022 C 285.241 303.162,287.817 301.591,289.131 300.531 C 291.477 298.638,294.525 297.149,301.154 294.658 C 306.578 292.620,309.256 290.100,309.611 286.701 C 310.425 278.911,300.508 277.781,288.164 284.256 C 285.837 285.476,283.064 286.753,282.002 287.092 C 280.939 287.431,278.648 288.304,276.910 289.032 C 269.994 291.926,267.929 291.580,267.412 287.441 C 267.094 284.900,267.414 284.468,271.732 281.607 C 273.790 280.244,276.212 278.471,277.115 277.668 C 278.019 276.864,280.159 275.365,281.872 274.336 C 283.585 273.307,285.856 271.928,286.918 271.271 C 290.840 268.848,292.150 268.387,296.199 268.007 C 304.037 267.272,305.437 262.180,300.606 251.975 C 299.025 248.635,298.735 247.208,297.966 238.950 C 297.508 234.033,297.193 232.200,296.520 230.553 C 293.854 224.025,292.924 217.266,293.933 211.765 C 294.341 209.543,294.819 205.119,294.995 201.932 C 295.273 196.913,295.466 195.666,296.439 192.625 C 297.973 187.832,298.160 179.598,296.814 176.119 C 296.366 174.960,295.532 172.375,294.961 170.373 C 294.299 168.050,293.374 165.828,292.404 164.227 C 291.567 162.849,290.557 161.082,290.159 160.300 C 289.121 158.262,286.691 156.173,283.479 154.558 C 276.631 151.115,272.391 150.770,266.198 153.152 M272.169 165.189 C 273.038 165.451,274.642 165.774,275.734 165.909 C 278.508 166.250,280.189 167.557,281.028 170.024 L 281.667 171.904 280.532 174.141 C 278.283 178.570,277.484 178.899,272.871 177.290 C 271.809 176.920,269.588 176.146,267.937 175.570 C 263.760 174.114,262.487 173.000,262.179 170.529 C 261.644 166.252,266.707 163.546,272.169 165.189 M97.522 229.956 C 97.921 230.496,98.675 231.781,99.197 232.811 C 101.788 237.924,105.771 239.754,115.364 240.240 C 122.214 240.587,122.522 240.658,124.302 242.301 C 127.796 245.527,125.705 249.657,118.693 253.379 L 114.662 255.519 111.677 259.658 C 109.650 262.468,107.910 264.436,106.258 265.788 C 104.919 266.883,102.228 269.359,100.277 271.291 C 92.521 278.971,90.858 280.099,86.710 280.497 C 83.765 280.778,81.206 277.904,79.333 272.213 C 78.911 270.933,78.036 268.824,77.388 267.527 C 76.740 266.229,75.803 263.938,75.306 262.435 C 74.201 259.092,71.305 252.198,69.511 248.639 C 62.915 235.553,62.886 229.222,69.424 229.787 C 70.547 229.884,73.363 230.119,75.680 230.309 C 78.507 230.541,80.588 230.918,82.002 231.453 C 85.325 232.713,88.141 232.761,90.137 231.591 C 94.514 229.026,96.508 228.584,97.522 229.956 " stroke="none" fill="#272827" fill-rule="evenodd"></path></g></svg>