<svg id="svg" version="1.1" xmlns="http://www.w3.org/2000/svg" xmlns:xlink="http://www.w3.org/1999/xlink" width="400" height="215.87301587301587" viewBox="0, 0, 400,215.87301587301587"><g id="svgg"><path id="path0" d="M81.210 41.488 C 80.675 41.587,79.071 42.252,77.646 42.966 C 75.638 43.971,74.689 44.317,73.434 44.503 C 70.885 44.879,69.394 45.320,67.575 46.234 C 66.648 46.700,65.084 47.316,64.100 47.602 C 61.508 48.355,61.381 48.436,59.349 50.624 C 57.275 52.857,56.307 54.756,56.031 57.127 C 55.948 57.840,55.648 59.201,55.365 60.151 C 54.669 62.484,54.639 65.756,55.285 68.790 C 55.538 69.978,55.932 72.505,56.161 74.406 C 56.671 78.641,57.390 80.745,58.867 82.324 C 59.395 82.889,59.827 83.454,59.827 83.581 C 59.827 84.024,61.617 85.747,63.074 86.707 C 63.883 87.240,64.605 87.773,64.679 87.892 C 65.472 89.175,72.663 89.180,75.173 87.900 C 77.646 86.638,79.488 85.085,79.477 84.271 C 79.458 82.864,77.129 80.124,75.572 79.678 C 74.816 79.461,74.158 78.940,72.347 77.122 L 70.071 74.838 69.705 73.218 C 69.276 71.324,68.904 68.410,69.022 67.871 C 69.068 67.664,69.305 65.509,69.549 63.082 C 70.160 57.026,70.552 56.266,74.227 54.015 C 75.276 53.372,76.480 52.618,76.904 52.340 C 77.560 51.908,78.118 51.799,80.683 51.605 C 84.304 51.332,87.684 50.574,89.268 49.680 C 91.561 48.386,95.703 48.399,97.997 49.706 C 98.619 50.061,100.222 50.721,101.561 51.174 C 108.608 53.560,110.289 54.442,112.484 56.911 C 114.572 59.260,115.319 60.018,117.406 61.906 C 118.473 62.871,119.683 64.130,120.094 64.703 C 120.506 65.277,121.311 66.201,121.884 66.756 C 122.572 67.423,123.268 68.453,123.936 69.790 C 124.892 71.705,125.028 71.868,126.461 72.809 C 128.308 74.021,128.915 74.867,129.902 77.595 C 130.321 78.755,130.846 80.067,131.069 80.511 C 133.186 84.731,133.074 85.003,128.618 86.502 C 127.311 86.941,126.031 87.434,125.773 87.597 C 125.515 87.760,124.212 88.334,122.878 88.874 C 121.544 89.414,119.763 90.233,118.919 90.695 C 118.076 91.157,116.494 91.800,115.402 92.125 C 112.389 93.021,109.544 95.894,108.604 98.989 C 108.027 100.889,108.102 106.065,108.721 107.009 C 109.468 108.149,114.138 112.550,115.551 113.445 C 116.931 114.319,122.704 114.883,130.408 114.895 C 134.764 114.902,135.302 114.943,136.057 115.329 C 137.931 116.285,138.575 118.244,137.849 120.786 C 137.603 121.649,137.295 122.937,137.165 123.650 C 137.035 124.363,136.593 126.015,136.185 127.322 C 135.776 128.629,135.095 130.815,134.671 132.181 C 134.244 133.557,133.220 136.023,132.375 137.709 C 131.017 140.417,130.826 140.953,130.641 142.569 C 130.311 145.460,129.222 146.838,125.727 148.794 C 125.002 149.199,123.976 149.928,123.448 150.414 C 120.470 153.147,117.788 155.278,116.739 155.745 C 116.263 155.956,115.310 156.567,114.621 157.103 C 113.931 157.639,113.202 158.122,113.001 158.177 C 112.800 158.231,111.945 158.437,111.103 158.634 C 109.603 158.986,109.363 159.101,107.633 160.312 C 106.657 160.995,105.463 161.247,101.836 161.537 C 100.410 161.651,98.175 161.941,96.868 162.183 C 89.218 163.595,83.841 161.171,80.624 154.860 C 80.281 154.187,80.238 153.428,80.238 147.945 L 80.238 141.786 81.511 139.892 C 83.749 136.562,84.854 135.724,89.116 134.126 C 92.582 132.827,92.168 129.791,88.292 128.086 C 85.780 126.980,78.934 129.487,76.790 132.298 C 76.464 132.725,75.833 133.339,75.387 133.662 C 74.676 134.177,73.796 135.162,71.280 138.259 C 70.537 139.175,69.734 140.912,69.355 142.425 C 69.209 143.011,68.658 144.323,68.132 145.341 C 66.345 148.799,66.209 156.343,67.893 158.587 C 68.580 159.503,69.392 161.158,69.870 162.619 C 71.095 166.359,76.832 169.734,84.773 171.388 C 86.317 171.710,88.974 172.402,90.677 172.927 L 93.772 173.881 95.581 173.329 C 96.576 173.026,98.051 172.446,98.857 172.040 C 101.138 170.893,102.857 170.404,106.479 169.874 C 110.468 169.290,116.346 167.807,117.582 167.073 C 118.069 166.784,118.951 166.286,119.543 165.966 C 120.135 165.646,121.252 164.846,122.026 164.187 C 124.782 161.844,129.462 158.918,131.635 158.181 C 133.347 157.601,134.960 156.469,136.939 154.461 C 137.952 153.433,139.379 152.081,140.110 151.456 C 141.192 150.532,141.625 149.949,142.441 148.324 C 142.993 147.227,143.769 145.988,144.167 145.572 C 144.564 145.157,145.296 144.039,145.794 143.089 C 146.291 142.139,147.210 140.633,147.836 139.742 C 148.462 138.850,149.336 137.392,149.778 136.501 C 150.221 135.610,150.910 134.395,151.311 133.801 C 151.892 132.941,152.244 131.909,153.044 128.726 L 154.049 124.730 153.925 120.518 C 153.815 116.758,153.742 116.135,153.251 114.703 C 152.634 112.907,152.480 110.059,152.970 109.485 C 154.163 108.087,156.455 107.577,158.659 108.218 C 161.451 109.030,163.492 109.236,166.808 109.042 C 170.207 108.843,171.068 109.000,172.659 110.104 C 173.855 110.935,175.017 112.680,174.843 113.384 C 174.769 113.685,174.663 116.361,174.607 119.330 C 174.492 125.497,174.384 126.219,173.100 129.484 C 172.165 131.859,172.164 131.868,171.933 135.964 C 171.668 140.689,171.601 141.253,171.065 143.305 C 170.847 144.136,170.605 145.448,170.525 146.220 C 169.777 153.482,168.167 156.799,164.580 158.466 C 162.080 159.628,161.671 159.990,160.880 161.737 C 159.648 164.458,160.869 165.167,167.490 165.577 C 171.592 165.832,174.375 166.302,175.575 166.945 C 176.300 167.333,179.402 167.213,181.006 166.735 C 181.811 166.495,183.885 166.019,185.615 165.678 C 190.384 164.735,191.067 164.219,190.244 162.178 C 189.581 160.532,189.136 160.113,186.895 159.031 C 184.494 157.872,184.596 157.989,183.988 155.691 C 183.362 153.328,183.612 149.381,184.690 144.600 L 185.373 141.577 185.468 132.397 C 185.595 120.226,185.298 118.437,182.649 115.383 C 180.681 113.116,180.643 112.996,181.387 111.388 C 182.391 109.218,181.287 109.395,193.835 109.395 C 204.099 109.395,204.921 109.423,205.411 109.781 C 205.702 109.993,206.532 110.553,207.256 111.026 C 209.926 112.769,210.156 116.494,207.868 120.950 C 207.333 121.993,207.059 122.938,206.805 124.622 C 205.606 132.566,205.698 132.129,204.819 134.098 C 203.926 136.100,203.652 137.861,203.454 142.862 C 203.300 146.790,203.172 148.002,202.727 149.784 C 202.430 150.972,201.892 153.261,201.532 154.872 C 201.171 156.482,200.681 158.241,200.443 158.780 C 200.204 159.320,199.666 161.245,199.246 163.059 C 198.826 164.873,198.431 166.441,198.367 166.543 C 198.136 166.917,200.498 170.199,201.312 170.635 C 206.294 173.301,217.347 171.759,223.380 167.555 C 225.052 166.390,222.344 163.368,219.066 162.741 C 214.471 161.861,213.526 159.303,215.333 152.628 C 215.563 151.776,215.910 150.302,216.103 149.352 C 216.296 148.402,216.889 146.263,217.422 144.600 L 218.392 141.577 218.689 134.773 C 218.852 131.031,219.087 127.581,219.211 127.106 C 220.750 121.205,221.274 117.104,220.822 114.501 C 220.374 111.919,222.214 109.789,225.322 109.292 C 226.184 109.154,227.667 108.784,228.618 108.470 C 231.974 107.361,238.283 107.796,239.926 109.250 C 242.397 111.436,242.111 125.472,239.513 129.592 C 238.444 131.287,238.279 131.949,238.032 135.545 C 237.900 137.455,237.638 139.593,237.449 140.297 C 237.177 141.310,237.130 142.251,237.222 144.816 C 237.347 148.296,237.308 148.533,235.956 152.484 C 235.411 154.075,235.407 154.130,235.735 155.588 C 236.558 159.245,236.336 160.181,233.606 164.593 C 231.496 168.004,231.859 171.973,234.449 173.796 C 236.364 175.144,239.476 176.101,241.292 175.900 C 243.297 175.679,243.449 175.587,246.078 173.017 C 247.403 171.721,249.339 169.841,250.380 168.839 C 252.098 167.186,252.323 166.873,252.822 165.445 C 253.460 163.617,253.491 163.755,251.988 161.722 C 249.437 158.271,249.415 157.793,251.544 152.160 C 251.938 151.116,252.475 147.802,252.480 146.376 C 252.484 145.274,253.565 138.976,254.119 136.825 C 254.303 136.112,254.631 134.557,254.848 133.369 C 255.065 132.181,255.681 130.038,256.217 128.607 C 256.804 127.039,257.329 125.151,257.537 123.856 C 257.884 121.696,258.269 120.310,259.244 117.711 C 259.681 116.547,259.797 115.735,259.922 112.959 L 260.073 109.611 260.968 108.693 C 261.712 107.928,262.423 107.549,265.218 106.425 L 268.575 105.076 278.186 105.076 C 290.508 105.076,291.008 105.191,291.591 108.181 C 291.892 109.722,291.707 110.589,290.825 111.771 C 289.818 113.121,289.008 114.960,288.567 116.895 C 288.316 117.997,287.829 119.725,287.483 120.734 C 287.049 122.005,286.750 123.534,286.511 125.702 C 286.322 127.424,286.021 129.368,285.843 130.022 C 285.128 132.639,284.665 135.337,284.663 136.903 C 284.661 138.436,284.029 141.571,283.372 143.297 C 282.984 144.319,282.508 147.901,282.507 149.815 C 282.500 158.784,280.528 162.013,273.218 165.024 C 270.636 166.087,270.344 166.564,270.971 168.697 C 271.506 170.515,272.623 171.197,276.458 172.048 C 277.349 172.246,278.807 172.706,279.698 173.070 L 281.317 173.732 289.417 173.873 C 297.364 174.011,297.547 174.024,299.136 174.567 C 302.930 175.864,304.707 175.774,306.376 174.200 C 307.306 173.323,307.308 173.044,306.403 171.155 C 305.746 169.783,303.802 167.603,303.237 167.603 C 303.143 167.603,302.287 166.665,301.335 165.518 C 298.450 162.044,298.184 159.535,299.995 152.874 C 300.587 150.699,301.222 147.901,301.407 146.656 C 301.620 145.220,302.026 143.679,302.517 142.444 C 303.329 140.399,303.713 138.440,304.101 134.369 C 304.230 133.019,304.524 131.221,304.754 130.374 C 304.985 129.527,305.356 127.327,305.579 125.486 C 305.901 122.827,306.102 121.906,306.555 121.012 C 307.372 119.402,308.161 116.874,308.664 114.255 C 309.281 111.041,309.698 109.691,310.268 109.071 C 310.541 108.774,311.552 107.666,312.516 106.609 C 313.479 105.552,314.708 104.299,315.246 103.825 L 316.225 102.964 317.670 103.094 C 319.464 103.255,320.058 103.834,321.139 106.478 C 322.032 108.662,323.298 110.259,324.848 111.158 C 325.496 111.533,326.594 112.252,327.288 112.756 C 328.371 113.541,328.832 113.721,330.528 114.024 C 332.234 114.328,332.693 114.509,333.871 115.342 C 334.622 115.872,335.594 116.488,336.031 116.709 C 339.600 118.517,342.081 120.805,342.683 122.844 C 343.989 127.260,347.023 128.391,352.646 126.558 C 354.519 125.947,354.619 125.839,355.076 123.920 C 355.534 121.997,355.250 119.320,354.343 117.006 C 353.158 113.986,353.115 113.169,353.324 97.624 C 353.498 84.720,353.517 84.304,353.977 83.045 C 356.368 76.507,355.486 71.438,351.609 69.433 C 350.068 68.636,344.669 72.603,342.782 75.918 C 341.995 77.301,335.712 83.513,333.477 85.118 C 333.062 85.417,332.253 85.931,331.681 86.260 C 330.617 86.874,328.358 89.099,327.257 90.619 C 326.597 91.529,325.999 91.892,323.695 92.778 L 322.228 93.342 320.628 92.758 C 317.978 91.792,317.917 91.624,317.801 85.060 C 317.699 79.336,318.066 74.763,318.681 74.084 C 319.327 73.370,321.515 72.808,324.525 72.582 C 328.397 72.292,328.893 72.105,329.678 70.642 C 330.979 68.215,330.179 66.395,327.091 64.756 C 325.347 63.830,324.642 63.722,319.654 63.613 L 316.091 63.535 313.083 62.542 C 309.821 61.465,308.338 61.286,300.108 60.975 L 296.868 60.853 295.443 61.500 C 292.485 62.842,291.209 66.242,292.135 70.315 C 292.731 72.940,292.676 80.009,292.041 82.397 C 291.788 83.348,291.440 84.936,291.269 85.928 C 290.867 88.245,289.226 91.683,287.827 93.136 C 285.629 95.419,282.954 96.112,276.352 96.112 C 271.499 96.112,269.421 96.278,266.641 96.888 C 264.178 97.428,262.424 96.898,261.405 95.306 C 260.578 94.012,260.580 94.058,261.186 91.037 C 261.377 90.086,261.888 87.462,262.321 85.205 C 263.143 80.931,263.789 78.961,265.224 76.350 C 265.828 75.250,266.143 74.322,266.379 72.944 C 266.888 69.971,267.668 68.875,269.870 68.039 C 270.583 67.769,271.534 67.398,271.984 67.215 C 275.042 65.970,275.226 61.636,272.285 60.116 C 269.334 58.589,257.688 57.842,254.319 58.963 C 251.180 60.008,250.265 61.873,250.031 67.711 C 249.940 69.964,249.770 71.257,249.362 72.786 C 249.061 73.915,248.712 76.053,248.587 77.538 C 248.461 79.023,248.214 81.324,248.037 82.651 C 247.860 83.979,247.631 87.010,247.528 89.388 C 247.425 91.767,247.265 93.839,247.172 93.994 C 244.548 98.379,240.445 99.501,235.097 97.295 C 232.703 96.308,231.144 96.413,228.510 97.743 C 227.444 98.280,226.049 98.786,225.184 98.948 L 223.694 99.228 222.863 98.264 C 222.405 97.734,222.031 97.138,222.031 96.941 C 222.030 96.420,223.512 92.616,223.870 92.220 C 224.426 91.606,224.838 90.308,224.838 89.171 C 224.838 88.553,225.171 86.436,225.578 84.466 C 226.530 79.861,226.547 79.691,226.668 73.489 C 226.744 69.544,226.845 68.106,227.077 67.658 C 227.246 67.331,227.498 66.641,227.636 66.126 C 228.335 63.528,229.526 62.451,232.707 61.539 C 238.438 59.896,239.259 58.467,235.004 57.539 C 233.796 57.276,233.087 56.971,232.289 56.372 C 230.651 55.143,230.420 55.067,227.583 54.834 C 221.662 54.348,214.277 54.471,213.067 55.076 L 211.987 55.616 211.823 57.103 L 211.658 58.591 212.616 60.200 C 213.828 62.236,213.978 63.531,213.620 68.859 C 213.277 73.955,213.094 75.152,212.435 76.591 C 211.880 77.804,211.879 77.814,211.879 83.845 C 211.879 97.972,210.493 99.841,200.000 99.860 L 195.356 99.869 192.572 98.863 C 188.761 97.487,188.364 97.198,187.885 95.455 L 187.502 94.060 189.222 92.441 L 190.942 90.821 191.147 88.769 C 191.261 87.640,191.355 85.984,191.357 85.089 C 191.361 83.234,191.774 81.416,192.451 80.269 C 193.489 78.509,193.570 77.848,193.726 69.870 C 193.835 64.312,193.949 62.168,194.156 61.771 C 194.752 60.632,195.279 60.282,196.952 59.914 C 199.686 59.314,201.024 58.345,201.700 56.475 C 202.036 55.547,201.423 54.613,198.285 51.271 C 197.268 50.189,196.281 49.075,196.090 48.796 C 195.335 47.691,192.197 47.922,190.572 49.203 C 187.426 51.682,183.538 52.840,181.328 51.956 C 180.003 51.426,178.665 51.051,174.736 50.111 L 172.907 49.673 171.956 50.268 C 171.433 50.596,170.800 51.221,170.549 51.657 L 170.094 52.449 170.809 53.924 C 171.693 55.747,171.936 56.046,173.477 57.207 C 175.056 58.397,176.579 60.610,176.915 62.203 C 177.435 64.671,177.298 90.302,176.753 92.266 C 175.038 98.449,165.657 100.633,158.524 96.509 C 154.525 94.197,154.876 94.613,153.452 90.497 C 152.736 88.428,151.620 83.250,151.620 81.995 C 151.620 81.622,151.346 80.734,151.011 80.022 C 150.677 79.309,150.233 78.094,150.026 77.322 C 148.818 72.823,146.733 68.746,144.531 66.578 C 143.733 65.792,143.019 64.845,142.753 64.220 C 142.210 62.942,139.947 60.567,138.793 60.064 C 138.177 59.796,137.542 59.155,136.417 57.666 C 134.817 55.548,134.588 55.368,130.994 53.382 C 129.924 52.792,128.661 51.999,128.186 51.619 C 127.711 51.240,127.030 50.783,126.674 50.605 C 126.317 50.426,125.346 49.613,124.514 48.800 C 121.494 45.844,118.577 44.789,112.694 44.521 L 108.963 44.352 106.099 43.009 L 103.235 41.665 100.376 41.570 C 94.339 41.367,82.137 41.315,81.210 41.488 M342.013 89.514 C 343.090 90.335,343.846 92.995,343.838 95.928 C 343.807 106.801,343.172 108.762,339.732 108.605 C 337.904 108.522,337.556 108.321,334.765 105.726 C 333.166 104.240,330.787 102.596,329.332 101.972 C 326.407 100.718,327.006 97.957,330.619 96.048 C 332.255 95.184,332.793 94.766,333.567 93.760 C 334.088 93.083,334.910 92.255,335.393 91.920 C 335.876 91.585,336.521 90.984,336.827 90.583 C 337.538 89.651,338.080 89.359,339.417 89.185 C 341.205 88.954,341.294 88.965,342.013 89.514 M127.848 101.472 C 130.302 102.675,129.406 104.735,126.089 105.519 C 125.198 105.730,123.586 103.908,123.870 103.010 C 124.460 101.151,125.987 100.561,127.848 101.472 " stroke="none" fill="#1f1f1f" fill-rule="evenodd"></path></g></svg>