<svg id="svg" version="1.1" xmlns="http://www.w3.org/2000/svg" xmlns:xlink="http://www.w3.org/1999/xlink" width="400" height="349.2063492063492" viewBox="0, 0, 400,349.2063492063492"><g id="svgg"><path id="path0" d="M293.629 11.254 C 291.846 12.287,288.812 16.393,287.745 19.214 C 282.234 33.793,281.286 34.934,274.680 34.934 C 269.063 34.934,268.844 34.588,269.715 27.074 C 270.479 20.484,270.068 16.556,268.555 15.975 C 267.400 15.532,264.727 16.915,263.982 18.341 C 263.580 19.109,262.723 20.648,262.076 21.760 C 261.226 23.223,260.732 24.721,260.289 27.175 C 258.848 35.168,252.597 38.867,248.112 34.382 L 246.924 33.194 247.157 30.134 C 247.285 28.451,247.613 25.941,247.887 24.556 C 248.945 19.198,247.709 16.630,244.171 16.837 L 242.346 16.943 240.666 19.389 C 239.594 20.949,238.647 22.908,238.048 24.803 C 237.531 26.437,236.880 28.226,236.600 28.780 C 236.321 29.333,235.874 31.298,235.607 33.146 C 234.705 39.401,233.846 40.063,225.740 40.740 C 218.210 41.369,217.272 40.891,219.723 37.679 C 220.643 36.475,221.402 34.937,221.854 33.362 C 222.241 32.017,222.788 30.117,223.069 29.140 C 224.576 23.906,222.539 19.624,219.087 20.770 C 216.495 21.631,215.814 22.762,214.347 28.647 C 212.645 35.476,212.766 37.918,214.881 39.399 C 215.506 39.837,215.531 39.964,215.086 40.472 C 214.809 40.789,214.334 41.538,214.031 42.136 C 213.322 43.538,211.908 44.177,208.097 44.819 C 201.648 45.906,198.924 43.639,200.114 38.178 C 200.314 37.259,200.567 35.799,200.676 34.934 C 200.784 34.070,201.219 32.004,201.642 30.343 C 202.868 25.529,200.819 22.214,196.748 22.429 L 194.782 22.533 193.839 24.423 C 193.320 25.462,192.663 27.191,192.377 28.265 C 192.091 29.339,191.540 31.083,191.153 32.140 C 190.766 33.197,190.268 35.386,190.047 37.004 C 189.651 39.896,188.927 41.767,186.950 45.006 C 185.027 48.154,180.070 49.331,177.969 47.139 L 176.943 46.069 176.765 39.366 C 176.505 29.584,174.759 27.258,170.752 31.354 C 167.972 34.196,167.526 35.787,167.452 43.144 C 167.417 46.603,167.377 49.603,167.362 49.812 C 167.292 50.836,164.564 53.610,162.361 54.896 C 156.497 58.321,152.869 55.958,156.121 50.831 C 157.129 49.241,157.681 45.522,157.573 41.048 C 157.430 35.096,153.163 31.728,149.310 34.527 C 147.376 35.932,147.158 36.277,146.554 38.882 C 146.257 40.162,145.847 41.644,145.642 42.177 C 145.438 42.709,145.137 45.960,144.975 49.402 L 144.679 55.661 143.340 57.612 C 142.078 59.450,141.817 59.633,138.860 60.753 C 131.433 63.568,127.822 61.778,128.343 55.540 C 128.677 51.534,127.293 44.513,125.848 42.882 C 124.037 40.838,121.432 42.259,119.125 46.549 L 117.669 49.256 117.575 54.934 C 117.472 61.201,117.357 61.668,115.224 64.492 C 112.732 67.793,110.496 68.996,106.849 68.996 C 102.766 68.996,101.882 68.054,101.156 62.933 C 101.038 62.096,100.703 60.952,100.413 60.391 C 100.123 59.830,99.720 58.475,99.518 57.380 C 99.315 56.285,98.816 54.913,98.409 54.332 C 94.181 48.303,87.468 57.066,89.718 65.677 L 90.402 68.297 89.581 69.919 C 89.129 70.811,88.276 71.911,87.686 72.364 C 87.095 72.817,86.069 73.635,85.405 74.182 C 82.024 76.968,78.621 76.424,77.002 72.838 C 75.980 70.574,72.344 66.862,70.827 66.534 C 70.204 66.399,68.751 65.813,67.598 65.232 C 66.445 64.651,64.402 63.820,63.057 63.385 C 61.712 62.950,59.599 62.169,58.361 61.649 C 55.810 60.578,54.209 60.605,50.733 61.781 C 49.633 62.153,47.555 62.637,46.115 62.858 C 43.049 63.327,40.636 64.357,37.945 66.345 C 36.206 67.630,34.986 69.098,32.127 73.348 C 31.639 74.073,30.247 75.748,29.033 77.071 C 26.598 79.725,23.110 84.734,22.371 86.638 C 22.111 87.310,21.512 88.384,21.041 89.023 C 18.719 92.177,16.369 103.851,17.303 107.594 C 18.171 111.076,21.115 115.789,24.624 119.316 C 28.144 122.854,29.352 123.414,34.365 123.827 C 35.877 123.952,37.765 124.275,38.559 124.545 C 44.127 126.435,48.713 126.899,50.579 125.761 C 51.210 125.376,52.699 124.666,53.889 124.183 C 55.078 123.700,56.527 122.859,57.109 122.316 C 57.690 121.772,59.502 120.465,61.135 119.412 C 66.941 115.668,69.361 113.478,70.210 111.201 C 70.627 110.084,71.249 108.856,71.594 108.472 C 73.339 106.524,75.906 101.830,77.037 98.515 C 77.464 97.266,78.459 94.830,79.249 93.100 C 80.038 91.371,80.842 89.322,81.034 88.548 C 81.775 85.559,85.792 82.992,87.933 84.138 C 89.986 85.236,90.617 87.084,90.718 92.291 C 90.860 99.585,92.330 103.057,95.277 103.057 C 98.628 103.057,99.283 101.513,99.580 92.926 L 99.815 86.114 101.261 82.117 C 102.057 79.919,102.707 78.075,102.707 78.019 C 102.707 77.258,106.032 76.343,108.821 76.338 C 114.941 76.326,115.079 76.510,115.190 84.823 C 115.278 91.439,115.508 92.302,117.627 93.968 C 120.518 96.242,123.157 93.804,124.374 87.733 C 124.755 85.833,125.365 83.591,125.730 82.751 C 126.095 81.910,126.506 80.515,126.644 79.651 C 127.075 76.950,130.872 71.222,132.700 70.514 C 134.671 69.751,137.977 69.447,139.728 69.867 C 142.522 70.537,142.703 70.932,142.738 76.461 C 142.779 82.855,143.418 84.002,146.256 82.778 C 149.391 81.427,151.566 76.772,152.465 69.489 C 152.752 67.161,153.158 65.049,153.367 64.797 C 155.607 62.099,163.478 62.421,164.593 65.257 C 164.838 65.878,164.885 68.200,164.732 72.047 L 164.500 77.894 165.422 78.816 C 166.240 79.634,166.525 79.713,167.956 79.517 C 170.787 79.129,171.350 78.119,172.247 71.824 C 172.463 70.306,173.074 67.947,173.604 66.584 C 174.134 65.220,174.828 63.391,175.145 62.519 C 176.871 57.777,183.153 55.381,184.738 58.861 C 185.547 60.635,185.591 64.701,184.835 67.656 C 183.447 73.078,184.194 76.158,186.767 75.629 C 187.224 75.535,187.975 75.381,188.436 75.286 C 189.669 75.032,193.006 68.202,193.720 64.468 C 194.024 62.877,194.656 61.018,195.201 60.105 C 195.724 59.231,196.625 57.572,197.202 56.419 C 198.399 54.032,200.173 52.766,202.335 52.757 C 206.148 52.740,206.638 53.934,206.638 63.246 C 206.638 71.853,206.856 72.563,209.379 72.162 C 212.621 71.647,215.384 67.011,216.783 59.738 C 218.179 52.476,219.105 50.658,222.500 48.504 C 227.729 45.188,230.914 49.757,228.785 57.518 C 226.571 65.586,229.805 68.960,235.075 64.081 C 237.382 61.945,237.874 60.636,238.554 54.822 C 239.068 50.424,239.589 49.575,243.128 47.369 C 250.677 42.662,253.952 44.824,250.820 52.447 C 247.427 60.709,247.168 61.925,248.537 63.211 C 250.910 65.440,254.953 61.720,257.133 55.302 C 257.511 54.187,258.274 52.332,258.829 51.179 C 259.383 50.026,260.246 48.205,260.746 47.131 C 261.741 44.994,263.698 43.590,266.900 42.714 C 274.219 40.712,278.888 43.776,275.308 48.232 C 274.097 49.739,273.386 51.654,272.284 56.375 L 271.642 59.127 272.677 59.955 C 275.910 62.542,280.046 58.999,283.258 50.891 C 285.665 44.812,288.079 42.620,292.366 42.620 C 294.327 42.620,294.414 42.705,296.719 46.887 L 298.011 49.233 296.992 51.079 C 296.431 52.095,295.714 53.729,295.398 54.710 C 295.082 55.691,294.345 57.027,293.760 57.679 C 290.161 61.687,291.592 65.937,295.819 63.793 C 299.038 62.161,302.844 55.103,302.876 50.707 C 302.896 47.960,305.639 47.099,309.842 48.521 C 318.006 51.284,317.636 53.520,306.908 66.256 C 303.532 70.263,304.618 73.712,309.255 73.712 C 310.835 73.712,312.732 71.493,313.907 68.272 C 315.086 65.039,317.211 62.449,320.502 60.233 C 324.319 57.664,325.406 57.511,327.354 59.271 C 330.948 62.519,329.673 66.217,323.625 70.086 C 321.533 71.424,319.678 74.167,320.248 75.080 C 321.538 77.147,323.510 76.760,326.722 73.808 C 327.825 72.795,328.945 71.965,329.211 71.965 C 329.477 71.965,330.172 71.870,330.756 71.753 C 334.108 71.082,335.153 79.754,332.118 83.048 C 330.178 85.152,329.423 85.462,325.666 85.694 C 319.645 86.067,315.568 90.564,318.284 93.836 C 319.303 95.064,326.158 92.751,329.425 90.077 C 331.723 88.196,333.402 89.106,335.316 93.271 C 338.234 99.620,335.518 102.189,325.625 102.436 C 318.733 102.608,316.706 103.122,314.482 105.261 C 312.832 106.848,312.933 109.482,314.683 110.501 L 315.828 111.168 318.875 110.184 C 324.894 108.240,331.022 109.155,332.497 112.218 C 334.695 116.783,325.949 122.766,321.668 119.627 C 319.198 117.816,318.364 117.350,316.705 116.850 C 311.835 115.385,307.880 117.149,308.077 120.699 C 308.183 122.605,308.996 123.295,311.833 123.886 C 319.012 125.382,321.749 129.330,319.794 135.370 C 318.010 140.881,316.630 141.207,312.650 137.062 C 306.093 130.231,296.918 130.158,298.374 136.947 C 298.986 139.801,301.971 141.866,308.297 143.810 C 311.745 144.870,311.478 147.669,307.839 148.629 C 305.596 149.221,303.862 150.487,302.403 152.599 C 301.802 153.469,300.930 154.508,300.466 154.907 C 300.002 155.306,299.074 156.105,298.404 156.681 C 297.710 157.278,295.666 158.275,293.658 158.996 C 291.718 159.693,289.109 160.714,287.860 161.266 C 286.080 162.052,285.073 162.269,283.200 162.268 L 280.810 162.266 278.130 159.474 C 276.656 157.938,274.738 155.738,273.867 154.585 C 269.942 149.387,265.313 152.801,266.505 160.017 C 267.074 163.461,267.007 164.160,265.979 165.507 C 264.120 167.946,259.840 168.708,254.748 167.507 C 252.359 166.944,250.558 167.528,247.406 169.891 C 244.084 172.382,241.747 169.204,241.747 162.195 C 241.747 156.661,241.267 155.421,238.605 154.062 C 234.614 152.026,231.395 158.385,233.106 164.924 C 233.679 167.114,233.433 169.988,232.626 170.529 C 227.208 174.162,222.888 171.936,222.117 165.114 C 221.583 160.394,221.147 158.724,220.057 157.218 C 216.431 152.214,213.824 157.698,215.352 167.112 C 216.289 172.881,214.424 175.142,208.908 174.927 C 203.947 174.734,203.533 174.071,203.730 166.641 C 203.851 162.074,203.897 161.831,205.133 159.127 C 207.718 153.469,207.247 151.177,202.993 148.726 C 200.647 147.375,193.760 147.066,191.579 148.215 C 187.973 150.114,182.810 151.677,179.214 151.956 C 176.978 152.130,174.864 152.514,173.799 152.939 C 172.838 153.322,170.716 153.907,169.083 154.238 C 162.706 155.530,160.654 157.980,162.245 162.402 C 163.857 166.884,162.537 176.034,160.035 177.717 C 156.700 179.961,148.862 180.328,145.565 178.396 C 143.762 177.339,143.556 176.851,142.902 172.077 C 142.270 167.466,139.405 163.120,136.704 162.673 C 134.067 162.238,130.182 162.455,128.384 163.139 C 127.424 163.504,125.469 164.166,124.041 164.609 C 122.215 165.176,121.030 165.801,120.046 166.718 C 119.277 167.435,117.851 168.282,116.878 168.600 C 113.895 169.575,110.203 172.695,108.788 175.438 C 108.460 176.074,107.021 177.852,105.591 179.389 C 102.399 182.819,101.958 183.669,100.967 188.297 C 99.712 194.162,99.712 194.496,100.970 198.141 C 102.586 202.824,103.794 203.807,111.699 206.876 C 119.481 209.898,122.582 209.352,128.908 203.848 C 130.349 202.594,132.300 201.137,133.244 200.609 C 135.201 199.515,137.029 198.002,139.554 195.385 C 141.474 193.395,144.079 192.040,148.472 190.747 C 149.913 190.323,152.457 189.191,154.126 188.233 C 157.665 186.200,157.631 186.193,159.811 189.360 C 163.112 194.156,163.613 195.591,163.826 200.873 C 164.145 208.749,166.149 210.325,172.887 207.999 C 179.295 205.788,188.389 206.196,189.694 208.754 C 190.622 210.573,190.428 220.330,189.404 223.406 C 188.955 224.751,188.381 227.109,188.126 228.646 C 187.872 230.183,187.394 232.683,187.064 234.201 C 186.441 237.063,186.464 237.952,187.555 252.943 C 187.790 256.171,188.082 256.827,190.334 259.194 C 192.242 261.200,194.284 261.203,198.358 259.206 C 200.129 258.338,202.325 257.596,204.106 257.263 C 205.690 256.967,208.009 256.268,209.258 255.711 C 212.356 254.329,217.277 253.237,220.437 253.231 C 223.648 253.225,227.314 252.766,232.911 251.667 C 236.016 251.057,238.356 250.830,241.513 250.830 C 246.185 250.830,247.889 250.449,249.875 248.963 C 252.231 247.199,253.293 246.872,257.118 246.734 C 263.147 246.517,264.278 247.615,263.056 252.504 C 262.144 256.153,262.439 257.545,264.769 260.595 C 265.437 261.469,266.280 262.969,266.642 263.930 C 267.005 264.891,267.750 266.384,268.298 267.249 C 269.230 268.720,271.648 274.112,273.157 278.081 C 273.522 279.042,274.425 280.731,275.163 281.835 L 276.507 283.843 276.627 288.035 C 276.783 293.433,276.384 295.141,274.186 298.489 C 270.098 304.716,265.374 306.173,253.624 304.832 C 242.768 303.592,239.517 300.416,240.970 292.469 C 241.216 291.124,241.185 290.069,240.855 288.626 C 240.191 285.716,239.306 280.806,238.784 277.131 C 237.683 269.390,230.846 267.510,228.508 274.305 C 227.454 277.368,226.932 277.936,224.176 279.017 C 222.804 279.555,220.932 280.588,220.016 281.312 C 217.806 283.059,215.745 284.184,212.829 285.236 C 209.199 286.545,204.661 289.313,201.427 292.191 C 199.086 294.274,198.235 294.817,196.994 295.023 C 194.654 295.410,192.484 296.333,190.694 297.701 C 189.803 298.382,187.523 299.689,185.628 300.605 C 183.734 301.521,181.397 302.798,180.437 303.444 C 179.355 304.171,177.758 304.824,176.245 305.159 C 174.900 305.457,173.092 305.858,172.227 306.051 C 165.485 307.555,159.552 313.647,160.696 317.893 C 161.229 319.872,162.808 320.566,167.511 320.887 C 170.020 321.059,171.595 321.371,173.100 321.995 C 174.253 322.473,176.533 323.383,178.166 324.017 C 179.799 324.651,182.943 325.968,185.153 326.942 C 189.675 328.937,190.991 329.103,193.803 328.035 C 197.392 326.671,201.085 327.246,203.627 329.565 C 204.514 330.375,205.788 331.483,206.458 332.028 L 207.675 333.019 214.052 332.771 C 221.554 332.480,222.436 332.733,225.192 335.959 C 227.057 338.142,228.742 338.788,233.400 339.106 C 239.313 339.509,242.400 336.774,242.437 331.097 C 242.442 330.379,242.917 328.373,243.493 326.638 C 244.392 323.933,244.541 322.958,244.541 319.803 C 244.541 313.489,246.481 311.676,252.014 312.819 C 253.557 313.138,256.412 313.362,258.926 313.362 C 261.281 313.362,265.368 313.538,268.009 313.753 C 273.890 314.232,274.777 314.080,276.993 312.215 C 280.088 309.608,282.172 306.552,285.492 299.752 L 288.640 293.302 288.498 284.380 L 288.357 275.459 287.100 272.838 C 286.408 271.397,284.873 268.803,283.689 267.074 C 279.361 260.752,277.750 258.191,276.365 255.437 L 274.951 252.625 275.818 250.730 C 277.696 246.629,282.722 243.376,288.709 242.387 C 302.974 240.031,306.412 226.874,295.103 217.917 C 292.714 216.025,281.494 215.385,277.555 216.917 C 276.402 217.365,274.122 217.942,272.489 218.200 C 267.883 218.925,266.377 219.364,264.587 220.499 C 263.676 221.076,262.060 221.934,260.997 222.405 C 258.041 223.712,255.114 227.451,251.491 234.548 C 249.500 238.448,245.304 240.325,238.532 240.344 C 236.193 240.350,233.250 240.923,231.833 241.647 C 231.280 241.929,228.524 242.532,225.708 242.987 C 222.893 243.442,219.179 244.149,217.456 244.560 C 212.004 245.858,205.601 245.925,203.363 244.707 C 201.385 243.630,201.381 243.620,200.369 238.428 C 200.070 236.891,199.574 234.704,199.268 233.569 C 197.448 226.827,201.238 223.532,206.860 226.969 C 208.652 228.064,209.161 228.197,212.510 228.436 C 215.653 228.660,216.530 228.865,218.516 229.843 C 224.056 232.570,227.773 229.353,227.773 221.831 C 227.773 217.340,228.060 216.560,230.899 213.324 C 233.699 210.133,232.967 207.287,229.045 206.121 C 227.413 205.636,223.934 203.589,223.015 202.574 C 222.473 201.975,222.453 201.670,222.829 199.729 C 223.520 196.161,223.906 192.507,223.945 189.170 C 224.033 181.521,225.166 179.697,229.649 179.988 C 234.558 180.306,235.014 181.002,235.207 188.472 C 235.454 198.059,238.121 202.338,242.096 199.525 C 244.350 197.930,245.478 189.296,244.073 184.392 C 242.595 179.234,246.193 175.958,251.090 178.005 C 253.760 179.120,254.682 180.661,255.053 184.629 C 256.198 196.875,257.338 199.825,260.924 199.825 C 264.725 199.825,265.431 195.774,263.926 182.617 C 263.101 175.405,264.226 173.624,269.606 173.624 C 270.676 173.624,271.954 173.374,272.594 173.040 C 273.743 172.438,279.742 170.225,281.125 169.891 C 281.607 169.775,282.946 170.195,284.669 171.004 L 287.438 172.303 289.619 170.780 C 297.637 165.182,297.121 165.384,299.324 166.980 C 300.978 168.178,301.716 169.425,302.049 171.579 C 302.999 177.735,309.627 184.880,313.490 183.911 C 317.000 183.030,316.722 178.743,312.759 172.663 C 308.238 165.727,310.994 154.117,317.369 153.243 C 319.365 152.970,320.731 153.687,323.282 156.350 C 326.483 159.691,332.907 162.787,336.650 162.792 C 341.165 162.799,341.785 156.895,337.467 155.007 C 334.137 153.550,331.274 151.646,330.673 150.491 C 330.346 149.861,329.540 148.487,328.882 147.439 C 327.587 145.376,327.286 143.053,328.127 141.627 C 328.365 141.225,329.031 140.064,329.607 139.047 C 332.344 134.219,333.802 133.396,338.889 133.803 C 343.102 134.140,344.410 134.402,345.175 135.064 C 346.329 136.062,353.690 138.689,355.334 138.689 C 356.791 138.690,357.145 138.516,358.802 136.985 L 360.647 135.280 359.486 132.946 C 357.658 129.270,355.043 128.055,348.936 128.043 C 343.904 128.034,343.739 127.957,341.609 124.637 C 340.260 122.536,340.383 121.245,342.188 118.526 C 342.878 117.487,343.747 115.651,344.119 114.446 C 345.881 108.743,350.307 106.607,357.323 108.073 C 360.371 108.710,360.703 108.718,362.388 108.202 C 363.380 107.898,365.371 107.476,366.812 107.264 C 370.464 106.726,370.545 106.687,371.550 104.974 C 372.676 103.051,372.421 102.467,369.672 100.680 C 367.141 99.034,364.929 98.978,359.127 100.410 C 352.538 102.037,350.085 101.614,347.368 98.385 C 346.235 97.039,346.220 87.178,347.347 84.891 C 348.822 81.897,350.454 80.291,353.013 79.312 C 354.358 78.798,355.852 78.163,356.332 77.900 C 356.812 77.637,358.856 76.915,360.873 76.297 C 362.891 75.678,365.249 74.920,366.114 74.613 C 366.978 74.306,368.580 73.890,369.673 73.688 C 372.709 73.128,373.907 72.158,374.284 69.952 C 374.816 66.836,371.663 64.071,368.995 65.314 C 368.467 65.559,366.951 66.133,365.626 66.588 C 364.302 67.044,362.558 67.803,361.752 68.275 C 360.946 68.748,359.207 69.541,357.887 70.037 C 356.567 70.534,355.237 71.167,354.932 71.444 C 351.828 74.252,347.866 73.253,345.753 69.129 C 342.894 63.547,343.337 60.278,347.340 57.420 C 348.347 56.702,350.035 55.141,351.092 53.951 C 352.190 52.715,354.695 50.627,356.940 49.075 C 362.335 45.348,364.367 43.169,364.367 41.112 C 364.367 38.318,361.132 37.604,358.603 39.840 C 358.218 40.179,357.118 40.883,356.157 41.403 C 355.197 41.923,353.860 42.771,353.188 43.287 C 352.515 43.804,350.836 44.970,349.455 45.880 C 346.789 47.637,344.489 50.095,343.057 52.716 C 341.415 55.721,338.332 56.378,336.014 54.215 L 334.498 52.800 334.498 48.473 L 334.498 44.146 335.838 41.588 C 336.575 40.181,337.788 38.137,338.534 37.045 C 341.859 32.172,342.364 29.559,340.195 28.437 C 336.847 26.705,332.428 30.012,330.814 35.459 C 329.482 39.949,328.481 41.114,323.947 43.443 C 321.181 44.864,316.743 43.227,315.115 40.186 C 314.256 38.581,315.793 32.405,317.934 28.855 C 321.575 22.818,321.314 17.118,317.396 17.118 L 315.509 17.118 314.269 19.159 C 313.587 20.282,312.378 22.522,311.582 24.138 C 310.786 25.753,309.863 27.467,309.531 27.948 C 309.198 28.428,308.506 29.935,307.992 31.297 C 305.873 36.908,302.638 38.688,298.380 36.585 C 293.498 34.174,293.155 29.905,297.293 23.056 C 300.904 17.080,298.261 8.568,293.629 11.254 M57.338 70.612 C 59.473 71.067,62.165 73.890,63.221 76.780 C 63.623 77.878,64.419 79.721,64.990 80.873 C 67.067 85.066,67.362 93.225,65.609 97.991 C 63.149 104.680,62.242 106.884,61.546 107.862 C 61.128 108.449,60.786 109.088,60.786 109.282 C 60.786 110.787,55.962 113.556,54.077 113.133 C 52.311 112.736,49.452 113.237,47.438 114.297 C 42.372 116.964,33.959 113.554,31.946 108.018 C 30.906 105.157,30.814 97.563,31.795 95.536 C 32.769 93.525,33.147 93.376,35.015 94.269 C 40.783 97.028,44.920 95.443,44.866 90.495 C 44.824 86.638,42.790 84.446,38.646 83.791 C 34.450 83.128,35.510 80.186,41.747 75.189 C 43.092 74.111,44.759 72.699,45.452 72.051 C 47.727 69.924,51.805 69.430,57.338 70.612 M53.780 82.036 C 51.483 83.498,51.238 83.915,51.440 86.019 C 51.678 88.494,54.385 91.179,56.641 91.179 C 61.644 91.179,62.524 82.901,57.676 81.449 C 55.794 80.885,55.526 80.926,53.780 82.036 M48.699 99.178 C 45.130 101.354,46.377 108.297,50.337 108.297 C 52.461 108.297,53.326 107.690,54.541 105.346 L 55.656 103.195 55.023 101.537 C 53.910 98.621,51.243 97.627,48.699 99.178 M288.351 144.246 C 283.029 146.663,288.234 153.859,293.942 151.975 C 295.367 151.505,297.155 148.640,296.773 147.437 C 295.754 144.226,291.743 142.706,288.351 144.246 M250.860 153.313 C 247.383 154.607,247.475 161.437,251.017 164.894 L 252.624 166.463 253.276 165.666 C 254.816 163.786,255.375 157.045,254.190 154.660 C 253.295 152.858,252.714 152.623,250.860 153.313 M190.754 162.183 C 193.732 163.686,194.227 168.829,191.657 171.547 C 188.225 175.176,177.647 176.571,176.059 173.604 C 175.578 172.706,176.229 163.970,176.831 163.241 C 178.562 161.144,187.369 160.475,190.754 162.183 M128.384 172.239 C 131.300 173.108,132.941 175.393,133.420 179.250 C 133.649 181.096,134.066 183.366,134.345 184.295 C 135.114 186.849,134.024 190.474,131.607 193.398 C 131.147 193.955,130.348 195.197,129.831 196.157 C 126.935 201.540,115.530 201.175,112.651 195.609 C 109.901 190.291,114.472 174.321,119.420 171.958 C 120.534 171.426,126.259 171.605,128.384 172.239 M281.631 175.711 C 280.353 176.021,278.628 177.489,277.896 178.890 C 277.304 180.023,277.816 188.662,278.621 191.123 C 281.003 198.404,288.561 194.388,286.683 186.838 C 286.381 185.623,285.985 183.027,285.803 181.068 C 285.305 175.699,284.728 174.959,281.631 175.711 M215.424 181.344 C 216.970 182.298,216.943 182.100,216.943 192.564 L 216.943 202.014 215.772 203.118 C 212.407 206.291,204.791 205.108,203.629 201.231 C 202.994 199.111,203.683 184.144,204.471 182.941 C 206.098 180.458,212.481 179.527,215.424 181.344 M190.646 181.999 C 191.999 182.824,192.006 182.853,192.511 189.771 C 193.188 199.047,192.402 199.854,182.623 199.923 C 172.704 199.994,172.063 199.445,171.631 190.517 C 171.288 183.428,172.866 182.058,181.834 181.658 C 184.716 181.529,187.624 181.399,188.297 181.368 C 188.987 181.337,190.010 181.612,190.646 181.999 M279.162 226.466 C 280.555 227.391,281.978 229.979,281.739 231.150 C 281.647 231.598,281.488 232.370,281.384 232.864 C 280.898 235.193,272.262 236.122,270.256 234.061 C 266.731 230.440,274.795 223.563,279.162 226.466 M225.871 294.854 C 228.264 295.764,228.500 301.015,226.350 305.502 C 224.927 308.473,224.629 312.274,225.327 318.548 C 225.759 322.435,225.753 322.524,225.012 323.264 C 223.507 324.765,217.015 324.122,212.542 322.029 C 210.612 321.125,209.810 320.982,205.016 320.682 C 198.457 320.271,197.131 319.976,194.236 318.280 C 192.987 317.548,191.360 316.754,190.621 316.515 C 186.798 315.279,188.109 309.723,192.855 307.052 C 194.028 306.392,195.801 305.259,196.795 304.534 C 197.789 303.810,199.445 302.901,200.475 302.516 C 201.504 302.131,203.049 301.332,203.908 300.741 C 204.766 300.151,206.634 299.308,208.057 298.869 C 209.481 298.429,211.395 297.599,212.310 297.023 C 216.012 294.694,222.655 293.632,225.871 294.854 " stroke="none" fill="#272827" fill-rule="evenodd"></path></g></svg>