<svg id="svg" version="1.1" xmlns="http://www.w3.org/2000/svg" xmlns:xlink="http://www.w3.org/1999/xlink" width="400" height="341.8803418803419" viewBox="0, 0, 400,341.8803418803419"><g id="svgg"><path id="path0" d="M98.879 49.049 C 96.414 49.819,91.710 53.871,89.736 56.923 C 89.129 57.863,87.998 59.398,87.224 60.333 C 84.690 63.395,83.857 67.714,84.752 73.162 C 85.421 77.241,85.775 78.296,87.423 81.129 L 88.975 83.796 88.188 84.633 C 87.340 85.536,86.044 85.660,82.564 85.169 C 78.766 84.634,77.778 86.185,77.778 92.682 C 77.778 98.533,77.155 99.350,72.021 100.239 C 65.840 101.309,63.250 105.208,65.921 109.420 C 66.451 110.256,67.288 112.190,67.780 113.717 C 68.273 115.244,69.293 117.448,70.048 118.615 C 73.949 124.651,71.408 132.308,65.504 132.307 C 59.695 132.307,56.241 128.146,57.647 122.842 C 59.240 116.830,59.487 115.616,59.487 113.804 C 59.487 111.480,58.478 108.511,57.153 106.939 C 56.650 106.343,55.610 104.951,54.841 103.847 C 52.409 100.356,50.475 99.026,48.208 99.287 C 40.302 100.197,32.564 111.295,33.900 119.810 C 34.604 124.302,40.515 131.921,44.701 133.733 C 45.594 134.119,46.940 135.023,47.692 135.740 C 50.543 138.461,57.383 140.505,63.649 140.510 C 69.751 140.515,71.282 142.582,71.282 150.816 L 71.282 156.162 70.217 157.653 C 64.489 165.675,69.889 170.617,79.316 165.979 C 80.538 165.378,82.077 164.681,82.735 164.430 C 87.604 162.577,88.422 160.061,85.660 155.429 C 81.108 147.794,83.022 136.219,89.230 133.847 C 92.608 132.556,94.942 130.681,102.214 123.418 C 106.386 119.251,109.032 116.875,109.969 116.457 L 111.392 115.821 113.100 116.800 C 114.040 117.338,116.246 118.877,118.003 120.220 C 119.759 121.564,122.295 123.201,123.637 123.858 C 127.456 125.729,130.841 127.795,131.071 128.396 C 132.148 131.200,130.557 135.400,127.301 138.356 C 120.132 144.862,108.577 157.094,105.886 161.026 C 102.398 166.121,98.900 168.983,95.726 169.336 C 89.673 170.009,90.532 176.322,97.842 184.881 C 98.369 185.498,99.122 186.634,99.516 187.407 C 99.911 188.180,101.001 189.581,101.940 190.520 L 103.647 192.227 105.558 192.029 C 108.705 191.704,109.687 190.132,109.761 185.299 C 109.847 179.719,116.807 169.985,123.062 166.698 C 126.993 164.632,128.669 162.612,133.158 154.530 C 133.942 153.120,135.109 151.133,135.753 150.116 C 137.359 147.576,137.454 143.484,135.975 140.534 C 134.416 137.426,135.097 133.231,137.522 131.002 C 139.886 128.830,148.553 134.745,151.450 140.508 C 154.088 145.754,155.325 146.960,160.572 149.401 C 165.991 151.922,165.980 157.290,160.540 165.299 C 159.262 167.179,157.764 169.614,157.211 170.709 C 156.335 172.440,154.882 174.371,151.040 178.907 C 150.531 179.508,149.223 181.481,148.134 183.290 C 146.775 185.549,145.009 187.773,142.502 190.384 L 138.850 194.188 135.232 194.188 L 131.614 194.188 130.936 195.299 C 129.275 198.024,130.062 201.295,133.344 205.299 C 134.423 206.615,135.809 208.615,136.424 209.744 C 139.184 214.807,143.315 217.348,147.196 216.370 C 149.311 215.838,150.162 214.603,151.292 210.427 C 152.550 205.781,153.723 203.610,156.949 199.950 C 158.458 198.238,160.207 195.818,160.837 194.573 C 161.954 192.359,163.219 190.594,165.983 187.389 C 167.801 185.281,169.781 182.593,171.453 179.964 C 172.205 178.781,173.667 176.631,174.701 175.187 C 176.122 173.201,176.873 171.674,177.778 168.930 L 178.974 165.299 180.855 164.370 C 183.260 163.181,183.119 163.162,184.782 164.898 C 185.831 165.992,186.505 167.208,187.373 169.569 C 189.467 175.264,192.417 177.748,197.903 178.436 C 203.114 179.089,205.657 180.982,206.770 185.035 C 207.198 186.593,206.057 188.548,201.805 193.545 C 196.427 199.865,194.814 202.170,192.744 206.496 C 191.619 208.846,190.245 211.385,189.691 212.137 C 189.138 212.889,187.691 215.197,186.477 217.265 C 181.946 224.986,175.984 227.816,170.904 224.658 C 167.265 222.396,165.041 222.885,164.607 226.042 C 164.323 228.112,164.379 228.178,168.889 231.099 C 170.299 232.012,172.376 233.535,173.504 234.483 C 174.632 235.431,176.133 236.693,176.839 237.289 C 182.176 241.793,184.521 242.961,187.517 242.608 C 190.513 242.254,192.796 239.457,192.813 236.121 C 192.829 232.698,193.636 231.015,196.906 227.589 C 200.172 224.166,200.923 222.947,202.003 219.313 C 202.902 216.287,204.575 213.499,207.130 210.768 C 209.687 208.034,210.519 206.279,210.951 202.708 C 211.635 197.055,212.312 195.970,216.710 193.480 C 220.758 191.188,221.403 191.114,225.137 192.511 C 227.324 193.330,228.337 194.390,229.918 197.513 C 231.332 200.307,233.286 202.046,235.025 202.059 C 237.233 202.077,238.789 202.676,239.882 203.930 C 242.074 206.445,241.709 207.494,236.426 213.846 C 234.705 215.915,232.822 218.299,232.240 219.145 C 231.048 220.879,223.712 228.263,221.880 229.573 C 221.222 230.044,220.145 231.231,219.487 232.212 C 218.829 233.192,216.906 235.397,215.214 237.111 C 211.892 240.475,209.811 242.968,208.125 245.600 C 206.321 248.417,202.248 249.388,198.127 247.984 C 196.087 247.289,195.556 247.762,195.556 250.273 L 195.556 251.869 202.812 259.142 C 211.841 268.191,212.927 268.813,215.642 266.489 C 217.274 265.092,217.793 263.311,217.731 259.316 C 217.660 254.676,223.364 243.366,227.324 240.297 C 227.808 239.922,229.580 238.609,231.261 237.379 C 237.470 232.839,244.014 225.478,246.152 220.632 C 247.495 217.587,249.975 214.726,251.287 214.708 C 251.571 214.704,252.678 215.816,253.746 217.179 C 256.505 220.702,257.505 221.564,261.439 223.819 C 264.320 225.470,265.854 226.706,270.227 230.896 C 273.141 233.688,276.340 236.487,277.335 237.116 C 281.239 239.582,281.762 243.467,279.103 250.243 C 278.626 251.458,277.869 254.111,277.420 256.140 C 275.435 265.113,272.878 268.225,266.936 268.895 C 265.942 269.007,263.492 269.488,261.493 269.963 C 256.515 271.147,255.181 270.534,253.170 266.137 C 252.271 264.171,251.736 263.489,250.273 262.438 C 247.669 260.567,247.673 260.567,245.838 262.471 C 243.257 265.148,242.702 269.301,244.406 273.175 C 245.118 274.794,247.665 284.924,248.016 287.533 C 248.875 293.912,254.777 293.616,256.753 287.093 C 258.351 281.816,260.839 279.504,266.079 278.425 C 267.436 278.145,269.330 277.673,270.288 277.374 C 274.685 276.005,275.797 277.226,278.964 286.901 C 281.968 296.076,283.572 298.626,288.484 302.038 C 290.493 303.434,292.906 305.161,293.846 305.877 C 295.185 306.897,296.334 307.377,299.145 308.091 C 301.120 308.593,304.120 309.593,305.812 310.314 C 312.852 313.312,323.097 311.075,326.316 305.838 C 327.318 304.207,327.350 304.023,327.348 300.026 L 327.346 295.897 326.069 293.794 C 320.896 285.271,309.312 282.178,303.781 287.842 L 302.433 289.222 302.999 290.408 C 303.718 291.917,304.900 292.503,307.728 292.755 C 312.882 293.214,315.020 294.473,315.883 297.557 C 317.166 302.137,312.899 304.546,308.207 301.893 C 307.266 301.360,305.582 300.641,304.464 300.294 C 302.736 299.757,302.278 299.433,301.395 298.122 C 300.824 297.275,299.200 295.423,297.785 294.007 C 295.027 291.245,294.654 290.560,293.046 285.299 C 291.252 279.428,291.340 277.757,293.653 273.714 C 295.362 270.728,296.828 269.979,303.118 268.882 L 306.577 268.278 309.666 269.226 C 316.728 271.392,318.509 269.556,318.954 259.653 L 319.187 254.447 320.534 252.312 C 321.771 250.351,322.242 249.956,326.325 247.469 C 330.944 244.655,333.675 242.263,333.675 241.032 C 333.675 239.942,332.422 237.718,331.418 237.026 C 328.227 234.827,325.812 229.952,325.812 225.709 L 325.812 223.741 328.043 221.530 L 330.273 219.319 332.632 219.318 C 336.173 219.315,337.783 220.921,338.800 225.470 C 341.257 236.459,344.524 239.678,357.565 243.958 C 367.623 247.260,375.732 238.039,373.363 225.996 C 372.602 222.125,371.668 220.579,367.115 215.654 C 362.985 211.185,363.174 211.255,349.402 209.009 C 347.080 208.631,344.984 208.537,342.051 208.682 C 334.911 209.033,329.401 209.525,328.423 209.897 C 323.195 211.885,319.864 209.487,317.458 202.001 C 314.961 194.235,315.137 190.455,318.285 184.285 C 320.962 179.038,315.371 176.207,308.889 179.528 C 307.573 180.202,305.429 181.106,304.124 181.537 C 302.820 181.968,301.205 182.631,300.535 183.010 C 298.479 184.173,295.768 185.981,295.550 186.334 C 295.196 186.907,297.051 189.874,298.298 190.727 C 300.193 192.024,302.322 196.578,303.592 202.051 C 303.832 203.085,304.637 205.357,305.380 207.100 C 307.625 212.361,307.095 213.396,299.537 218.510 C 297.589 219.827,294.897 221.432,293.554 222.077 C 292.210 222.722,290.588 223.634,289.949 224.103 C 287.575 225.849,285.938 225.421,282.647 222.192 C 279.741 219.341,277.864 218.245,270.985 215.381 C 264.461 212.665,259.160 205.642,261.023 202.182 C 261.879 200.593,268.046 194.971,270.556 193.492 C 272.770 192.187,275.811 189.300,277.207 187.179 C 281.095 181.273,286.369 176.781,291.277 175.198 C 292.309 174.865,293.581 174.164,294.104 173.641 L 295.055 172.690 294.385 170.926 C 294.016 169.956,293.129 168.595,292.413 167.902 C 291.697 167.208,290.188 165.531,289.060 164.173 C 285.314 159.668,279.550 155.807,276.805 155.966 C 274.097 156.123,273.395 157.769,273.992 162.564 C 274.565 167.163,274.099 168.744,271.562 170.808 C 270.588 171.600,269.002 173.146,268.038 174.244 C 267.074 175.341,265.774 176.800,265.148 177.486 C 264.523 178.172,263.287 179.851,262.403 181.218 C 261.519 182.584,259.979 184.562,258.980 185.612 C 257.982 186.662,256.625 188.444,255.966 189.573 C 252.369 195.729,250.255 196.352,244.957 192.812 C 243.265 191.682,240.650 189.567,239.145 188.113 C 237.641 186.660,235.691 184.981,234.812 184.384 C 233.474 183.475,233.116 182.989,232.618 181.410 L 232.023 179.522 232.939 178.138 C 233.443 177.376,234.738 176.190,235.816 175.502 C 240.763 172.346,241.660 171.684,243.506 169.824 C 245.447 167.869,247.585 164.186,249.267 159.900 C 250.194 157.538,250.957 156.785,253.829 155.403 C 261.407 151.753,260.942 145.914,252.650 140.590 C 251.615 139.926,250.154 138.825,249.402 138.143 C 248.650 137.462,246.648 136.189,244.955 135.316 C 235.402 130.391,229.112 133.480,235.271 140.072 C 239.751 144.865,239.083 150.217,233.377 155.252 C 230.589 157.711,229.473 159.013,224.176 165.983 C 218.917 172.902,217.446 172.984,208.435 166.852 C 198.322 159.972,194.896 155.282,197.411 151.760 C 199.691 148.566,201.317 145.341,201.831 142.995 C 202.327 140.729,205.729 132.403,206.589 131.348 C 207.173 130.632,209.206 129.897,211.934 129.416 C 217.750 128.389,217.936 124.301,212.425 118.632 C 210.689 116.846,208.105 113.818,206.685 111.903 C 203.693 107.872,203.276 107.535,198.759 105.501 C 194.164 103.433,193.230 103.290,191.859 104.443 C 189.957 106.043,189.846 107.329,191.273 111.250 C 192.730 115.255,192.620 116.677,190.584 120.171 C 188.828 123.184,187.562 125.938,186.346 129.391 C 184.240 135.369,180.866 139.650,177.976 140.011 C 175.754 140.289,175.609 140.216,171.972 136.969 C 170.325 135.499,167.812 133.700,166.130 132.789 C 157.572 128.150,156.173 125.393,160.735 122.164 C 163.612 120.126,165.416 117.926,168.301 112.929 C 171.486 107.414,175.189 104.274,178.507 104.274 C 185.453 104.274,185.418 100.941,178.400 94.025 C 176.392 92.046,174.575 90.074,174.362 89.641 C 173.897 88.696,170.239 83.192,167.766 79.715 C 162.659 72.535,158.077 75.898,160.392 85.128 C 161.888 91.096,161.277 95.600,158.551 98.690 C 153.324 104.617,151.709 109.075,152.818 114.516 C 153.490 117.813,153.334 119.660,152.385 119.658 C 151.863 119.657,148.459 118.096,147.309 117.330 C 146.486 116.782,144.757 115.916,143.468 115.406 C 139.992 114.032,138.076 112.714,136.962 110.932 C 135.300 108.274,130.217 105.017,124.477 102.933 C 120.619 101.532,120.197 101.212,119.775 99.368 C 119.316 97.363,119.065 97.436,126.463 97.436 C 135.729 97.436,136.077 97.234,138.088 90.687 C 139.991 84.492,139.694 82.527,136.617 80.957 L 135.285 80.277 133.369 81.628 C 126.094 86.754,122.977 85.206,124.279 77.114 C 124.909 73.197,124.816 72.368,123.161 67.179 C 120.515 58.886,116.636 55.213,105.812 50.754 C 104.496 50.211,102.957 49.494,102.393 49.159 C 101.196 48.448,100.841 48.437,98.879 49.049 M106.303 62.308 C 111.018 65.172,112.983 72.474,109.573 74.453 C 108.036 75.344,102.982 75.305,98.960 74.370 C 90.484 72.399,94.448 61.960,103.947 61.237 C 104.237 61.215,105.298 61.697,106.303 62.308 M99.580 96.786 C 104.530 98.084,105.208 107.858,100.695 112.853 C 100.031 113.589,99.487 114.332,99.487 114.505 C 99.487 114.678,98.601 115.716,97.517 116.812 C 86.009 128.448,80.867 128.271,80.894 116.239 C 80.906 110.557,81.070 109.984,84.700 102.906 C 88.033 96.410,91.969 94.791,99.580 96.786 M50.534 114.197 C 52.533 116.344,51.898 121.368,49.627 121.368 C 48.993 121.368,47.168 119.632,46.569 118.459 C 45.417 116.204,48.908 112.452,50.534 114.197 M355.916 221.237 C 360.059 224.144,361.300 229.652,358.293 231.793 L 357.317 232.488 355.489 231.805 C 348.557 229.211,347.217 220.643,353.621 219.864 C 353.779 219.845,354.812 220.463,355.916 221.237 M311.872 228.803 C 317.129 233.740,316.793 246.368,311.307 250.082 C 309.496 251.307,309.145 251.748,307.994 254.236 C 306.150 258.224,304.941 258.941,299.138 259.488 C 296.586 259.728,294.893 260.077,293.877 260.570 C 291.088 261.925,289.918 260.371,289.916 255.312 C 289.914 249.439,290.848 247.845,295.284 246.151 C 301.622 243.731,303.705 240.118,301.259 235.785 C 299.032 231.839,299.887 229.654,304.274 228.081 C 308.669 226.504,309.508 226.584,311.872 228.803 " stroke="none" fill="#222322" fill-rule="evenodd"></path></g></svg>