<svg id="svg" version="1.1" xmlns="http://www.w3.org/2000/svg" xmlns:xlink="http://www.w3.org/1999/xlink" width="400" height="319.327731092437" viewBox="0, 0, 400,319.327731092437"><g id="svgg"><path id="path0" d="M130.671 22.042 C 128.203 22.295,124.853 23.674,121.359 25.875 C 116.718 28.800,115.746 29.598,114.832 31.230 C 114.365 32.065,113.452 33.538,112.803 34.505 C 108.322 41.183,108.135 56.362,112.485 60.382 C 116.649 64.231,117.654 69.567,115.974 78.914 C 115.643 80.759,115.274 83.131,115.154 84.185 C 115.034 85.240,114.732 87.037,114.483 88.179 C 113.853 91.073,113.509 107.763,114.046 109.391 C 114.968 112.185,117.877 113.683,120.723 112.830 C 122.580 112.274,125.039 112.383,127.085 113.112 C 131.093 114.541,132.862 114.732,134.822 113.946 L 136.581 113.240 136.516 111.366 C 136.447 109.417,135.521 107.705,132.758 104.419 C 130.395 101.609,129.786 96.980,131.083 91.693 C 131.536 89.848,132.009 87.621,132.135 86.744 C 132.436 84.651,134.905 78.169,135.898 76.867 C 136.327 76.305,137.101 74.918,137.619 73.785 C 138.690 71.441,139.579 70.462,141.648 69.345 C 143.531 68.328,143.891 68.625,146.073 73.003 C 146.948 74.760,148.275 76.845,149.022 77.636 C 149.768 78.427,150.760 79.744,151.225 80.564 C 151.691 81.384,152.474 82.462,152.965 82.960 C 153.457 83.458,154.278 84.441,154.790 85.144 C 156.566 87.580,159.092 90.191,162.000 92.596 C 164.519 94.678,167.543 98.332,168.524 100.479 C 168.926 101.358,170.170 103.275,171.289 104.740 C 172.407 106.205,173.754 108.008,174.281 108.748 C 176.914 112.443,181.665 116.484,184.993 117.858 C 188.862 119.455,191.083 122.333,192.465 127.540 C 193.332 130.804,192.737 132.304,189.327 135.456 C 187.905 136.770,185.160 139.445,183.227 141.399 C 181.294 143.354,178.761 145.766,177.598 146.760 C 176.435 147.754,175.093 149.130,174.616 149.819 C 173.512 151.411,173.210 151.512,171.270 150.936 C 169.341 150.363,169.548 150.688,168.205 146.125 C 167.005 142.047,166.454 137.842,166.454 132.776 C 166.454 125.646,163.214 124.383,157.425 129.254 C 156.129 130.345,154.597 130.953,151.757 131.504 C 149.564 131.929,149.214 132.110,147.627 133.636 C 145.143 136.026,144.860 136.394,144.097 138.231 L 143.412 139.881 144.150 141.426 C 144.720 142.619,145.346 143.272,146.899 144.293 C 149.580 146.055,152.030 148.184,154.936 151.278 C 156.256 152.684,157.962 154.454,158.727 155.212 C 162.168 158.622,162.730 164.120,160.174 169.352 C 159.450 170.833,158.461 173.044,157.976 174.265 C 157.491 175.486,156.698 177.109,156.214 177.873 C 155.730 178.636,155.092 180.248,154.796 181.454 C 154.374 183.175,153.943 184.017,152.798 185.355 C 151.995 186.293,150.999 187.825,150.584 188.758 C 149.395 191.436,146.047 192.520,142.954 191.228 C 141.593 190.659,134.505 183.545,134.505 182.748 C 134.505 182.603,133.606 181.839,132.508 181.049 C 131.410 180.260,129.464 178.666,128.184 177.507 C 126.905 176.348,125.716 175.399,125.542 175.399 C 125.369 175.399,123.757 174.691,121.959 173.826 C 120.161 172.961,117.472 171.943,115.984 171.565 C 114.495 171.186,112.267 170.391,111.032 169.796 C 106.626 167.677,100.507 167.276,89.297 168.372 C 83.668 168.922,80.365 170.809,77.480 175.123 C 76.967 175.890,76.056 177.138,75.455 177.897 C 71.767 182.554,71.797 191.651,75.517 196.760 C 76.111 197.575,76.902 198.848,77.276 199.587 C 77.739 200.505,78.435 201.208,79.472 201.806 C 80.307 202.287,81.450 203.023,82.011 203.441 C 84.214 205.083,90.765 207.488,100.639 210.277 L 106.230 211.857 109.904 211.668 C 111.925 211.564,116.597 211.365,120.288 211.227 C 124.002 211.088,127.387 210.812,127.872 210.609 C 129.100 210.094,136.083 208.956,138.326 208.906 C 140.771 208.851,142.739 209.873,143.321 211.502 C 143.867 213.028,143.922 232.210,143.392 236.489 C 142.767 241.539,143.867 245.304,147.249 249.686 C 148.332 251.089,149.875 253.208,150.677 254.395 C 152.212 256.665,156.995 261.362,158.626 262.202 C 159.153 262.473,160.304 263.242,161.182 263.909 C 162.061 264.577,163.858 265.621,165.176 266.230 C 171.899 269.332,172.693 272.747,168.311 279.712 C 160.884 291.520,158.068 293.830,150.201 294.567 C 145.304 295.026,144.093 295.893,144.091 298.941 C 144.086 303.842,149.590 307.389,154.892 305.902 C 156.821 305.361,157.739 305.364,162.162 305.932 C 165.740 306.392,169.240 303.210,174.551 294.667 C 175.130 293.736,176.065 292.930,177.618 292.023 C 179.947 290.663,181.113 289.430,181.938 287.456 C 182.538 286.020,185.660 281.143,186.340 280.579 C 187.157 279.901,199.710 280.187,203.291 280.965 C 206.015 281.557,206.160 281.558,207.924 281.001 C 208.968 280.672,211.448 280.325,213.738 280.187 C 219.715 279.828,220.710 279.276,222.951 275.080 C 226.232 268.932,226.576 264.364,223.971 261.502 C 223.492 260.974,222.574 259.660,221.931 258.581 C 220.583 256.317,217.492 253.632,214.518 252.141 C 213.453 251.607,212.384 250.932,212.143 250.642 C 211.541 249.917,209.734 249.052,207.865 248.594 C 207.007 248.384,205.425 247.754,204.350 247.193 C 202.152 246.046,197.014 245.581,194.381 246.290 C 192.330 246.843,186.346 252.169,184.558 255.033 C 181.154 260.487,177.726 262.343,174.498 260.479 C 170.356 258.086,169.685 257.364,165.946 251.278 C 162.892 246.306,162.715 245.921,162.304 243.354 C 162.101 242.089,161.598 239.257,161.187 237.061 C 160.775 234.864,160.344 232.133,160.228 230.990 C 160.113 229.848,159.741 227.501,159.402 225.775 C 159.063 224.049,158.786 221.954,158.786 221.119 C 158.786 220.284,158.484 217.958,158.116 215.950 C 156.948 209.589,157.628 203.867,160.393 196.805 C 161.253 194.609,162.113 192.192,162.305 191.436 C 162.502 190.661,163.166 189.493,163.827 188.762 C 164.471 188.048,165.954 185.576,167.121 183.269 C 171.806 174.006,175.677 174.258,181.884 184.232 C 182.447 185.136,183.469 186.710,184.156 187.729 C 185.325 189.465,185.429 189.817,185.804 193.270 L 186.205 196.956 187.432 197.999 C 190.644 200.731,193.450 201.216,197.293 199.705 C 198.694 199.154,200.829 198.490,202.038 198.229 C 212.498 195.973,214.591 188.116,204.966 187.239 C 201.584 186.931,200.007 186.016,197.369 182.832 C 196.268 181.503,194.020 178.938,192.372 177.132 C 190.725 175.327,188.917 173.012,188.355 171.989 C 187.432 170.309,187.080 169.992,184.746 168.738 C 182.031 167.279,181.688 166.845,181.356 164.455 C 180.891 161.102,184.140 157.421,189.567 155.153 C 190.225 154.878,191.842 153.535,193.162 152.167 C 194.481 150.799,196.197 149.023,196.974 148.220 C 198.770 146.364,200.000 143.639,200.000 141.517 C 200.000 140.092,200.140 139.769,201.319 138.491 C 203.165 136.488,203.759 136.572,205.762 139.122 C 207.566 141.417,208.536 142.117,211.342 143.147 C 214.274 144.223,217.004 147.268,218.489 151.118 C 219.455 153.625,222.009 157.521,223.195 158.298 C 223.668 158.608,224.717 159.527,225.526 160.341 C 227.760 162.589,232.293 166.826,233.500 167.795 C 234.090 168.268,235.221 169.546,236.013 170.634 C 236.804 171.722,238.119 173.231,238.934 173.986 C 239.749 174.742,240.847 175.816,241.374 176.373 C 241.901 176.931,243.405 178.413,244.716 179.668 C 257.107 191.524,258.134 196.291,250.227 205.252 C 248.776 206.897,246.133 211.170,245.373 213.099 C 245.130 213.714,244.524 214.953,244.025 215.853 C 243.270 217.212,243.061 218.103,242.787 221.124 C 242.606 223.124,242.225 225.982,241.941 227.476 C 240.117 237.062,242.993 243.770,248.928 243.770 C 257.734 243.770,260.529 239.734,257.668 231.150 C 255.731 225.341,257.011 218.231,260.778 213.865 C 261.703 212.792,263.533 210.668,264.844 209.144 C 269.600 203.617,274.542 203.783,277.955 209.585 C 279.514 212.235,283.817 217.387,285.828 219.012 C 291.859 223.884,293.297 225.895,293.282 229.438 C 293.265 233.689,292.685 237.506,291.545 240.877 C 289.747 246.190,290.321 248.987,294.362 254.614 C 295.530 256.241,296.486 257.691,296.486 257.836 C 296.486 259.293,306.986 263.914,311.808 264.578 C 313.133 264.761,315.814 265.329,317.765 265.842 C 322.085 266.976,325.309 267.064,328.776 266.142 C 330.082 265.794,331.903 265.507,332.824 265.503 C 335.111 265.492,337.095 264.669,339.989 262.529 C 346.194 257.940,347.928 252.738,346.811 242.067 C 345.260 227.252,333.765 219.610,316.933 222.204 C 310.377 223.215,308.804 222.564,306.919 218.061 C 305.691 215.128,303.196 211.214,301.088 208.911 C 300.346 208.101,299.454 206.879,299.105 206.196 C 298.756 205.512,298.173 204.683,297.810 204.354 C 297.032 203.651,296.710 202.708,295.998 199.042 C 295.708 197.548,295.124 195.725,294.700 194.991 C 293.662 193.192,293.703 193.036,295.406 192.282 C 297.801 191.223,300.095 192.216,302.944 195.545 C 304.593 197.471,305.819 197.900,311.170 198.423 C 315.497 198.847,316.911 199.337,318.865 201.091 C 326.069 207.558,329.798 208.982,333.375 206.629 C 337.040 204.219,336.486 201.328,331.264 195.612 C 330.585 194.868,329.662 193.431,329.214 192.417 C 327.198 187.855,324.272 186.789,317.177 188.030 C 312.507 188.847,308.389 187.273,303.310 182.730 C 299.816 179.605,296.414 179.231,288.658 181.118 C 280.743 183.044,278.561 182.606,275.780 178.533 C 275.023 177.425,273.729 175.632,272.905 174.550 C 272.080 173.468,270.974 171.966,270.447 171.212 C 268.405 168.291,263.058 162.631,261.342 161.575 C 260.113 160.819,253.345 154.103,250.324 150.643 C 249.273 149.438,247.965 148.188,247.419 147.866 C 246.477 147.310,244.272 144.743,242.469 142.100 C 242.017 141.438,239.070 138.413,235.919 135.377 C 226.603 126.398,225.661 125.093,226.900 122.880 C 228.397 120.204,238.989 118.280,246.439 119.331 C 253.740 120.360,256.073 121.729,258.235 126.250 C 259.020 127.891,259.973 129.511,260.352 129.851 C 261.509 130.886,262.208 132.330,262.566 134.422 C 263.335 138.924,265.626 141.214,269.361 141.214 C 273.378 141.214,275.598 136.008,273.827 130.741 C 273.489 129.736,272.975 127.692,272.685 126.198 C 271.518 120.192,271.117 119.510,265.955 114.759 C 261.968 111.090,258.573 108.626,255.751 107.356 L 253.834 106.493 250.639 106.962 C 247.771 107.384,247.232 107.380,245.367 106.924 C 239.418 105.469,235.488 105.346,232.584 106.526 C 231.535 106.952,229.849 107.478,228.837 107.694 C 225.576 108.389,222.654 109.949,219.998 112.412 C 217.637 114.601,215.587 115.655,213.691 115.655 C 212.161 115.655,206.699 110.746,204.093 107.029 C 203.293 105.887,202.003 104.233,201.227 103.355 C 199.183 101.038,196.748 97.821,195.787 96.166 C 195.328 95.375,194.587 94.335,194.141 93.854 C 193.694 93.373,192.679 92.079,191.885 90.979 C 191.091 89.878,189.408 88.050,188.144 86.916 C 186.880 85.782,185.472 84.266,185.016 83.547 C 183.326 80.888,180.491 78.033,178.481 76.969 C 177.401 76.397,175.799 75.304,174.920 74.541 C 174.042 73.777,172.219 72.577,170.869 71.875 C 169.520 71.173,167.579 69.913,166.556 69.075 C 165.533 68.237,164.085 67.158,163.339 66.678 C 162.592 66.198,161.981 65.690,161.981 65.550 C 161.981 65.409,161.358 64.656,160.597 63.877 C 158.173 61.395,155.907 56.793,156.378 55.307 C 157.277 52.477,159.911 51.726,164.696 52.934 C 167.844 53.728,174.889 53.387,177.931 52.292 C 180.984 51.193,183.107 51.177,185.623 52.236 C 192.070 54.950,195.218 48.971,190.365 43.231 C 189.514 42.225,188.818 41.306,188.818 41.190 C 188.818 40.627,183.631 36.561,181.917 35.781 C 179.980 34.900,179.922 34.894,172.971 34.877 C 161.304 34.849,158.470 35.408,155.601 38.303 C 149.940 44.018,148.349 44.060,146.932 38.528 C 145.501 32.942,143.438 29.214,140.620 27.119 C 139.629 26.383,138.393 25.359,137.875 24.844 C 136.982 23.958,134.663 22.616,133.127 22.097 C 132.743 21.968,131.637 21.942,130.671 22.042 M134.319 36.988 C 136.680 38.297,137.149 39.123,137.314 42.258 C 137.605 47.802,136.835 49.287,132.287 51.949 C 124.232 56.664,118.745 49.238,123.626 40.227 C 125.769 36.271,130.461 34.849,134.319 36.988 M101.438 179.060 C 106.755 180.586,111.318 182.978,114.428 185.870 C 115.403 186.776,116.745 187.573,118.313 188.177 C 119.631 188.685,121.477 189.531,122.416 190.059 C 123.354 190.587,125.272 191.327,126.677 191.705 C 131.898 193.109,133.690 196.436,130.687 199.148 L 129.417 200.296 122.225 200.300 C 118.269 200.302,114.633 200.388,114.145 200.492 C 113.658 200.595,112.391 200.900,111.331 201.168 C 109.573 201.612,109.149 201.607,106.538 201.109 C 104.963 200.809,102.596 200.468,101.278 200.352 C 96.194 199.905,89.977 193.921,88.824 188.367 C 87.663 182.774,95.144 177.254,101.438 179.060 M326.890 232.569 C 328.128 233.153,328.521 233.567,329.205 235.012 C 329.658 235.969,330.528 237.478,331.138 238.364 C 332.783 240.756,333.506 250.090,332.308 253.480 C 330.061 259.843,323.171 260.364,315.563 254.745 C 314.471 253.939,312.716 252.860,311.661 252.348 C 304.888 249.056,300.617 238.835,305.119 236.692 C 307.228 235.688,307.461 235.704,309.079 236.964 C 312.196 239.392,314.733 239.006,316.844 235.782 C 319.560 231.635,322.747 230.616,326.890 232.569 M203.594 259.425 C 207.332 259.789,208.365 260.269,209.603 262.221 C 210.806 264.118,210.891 263.865,208.387 265.883 C 204.655 268.891,200.876 270.142,196.411 269.850 C 189.356 269.388,187.150 265.970,191.294 261.924 C 193.337 259.930,193.691 259.773,196.933 259.431 C 200.163 259.091,200.159 259.091,203.594 259.425 " stroke="none" fill="#282828" fill-rule="evenodd"></path></g></svg>