<svg id="svg" version="1.1" xmlns="http://www.w3.org/2000/svg" xmlns:xlink="http://www.w3.org/1999/xlink" width="400" height="243.6548223350254" viewBox="0, 0, 400,243.6548223350254"><g id="svgg"><path id="path0" d="M92.875 26.156 C 92.393 26.321,91.833 26.764,91.580 27.179 C 91.336 27.581,90.306 29.226,89.292 30.835 C 88.279 32.444,87.113 34.398,86.701 35.179 C 84.463 39.421,87.943 43.291,90.587 39.500 C 92.139 37.276,92.966 35.856,93.361 34.735 C 93.597 34.065,94.187 32.697,94.671 31.695 C 96.500 27.911,95.625 25.214,92.875 26.156 M43.266 28.715 C 40.092 29.346,33.173 32.203,31.708 33.487 C 31.496 33.673,30.833 34.071,30.234 34.373 C 27.285 35.857,22.162 41.268,20.547 44.607 C 20.060 45.612,19.411 46.768,19.105 47.175 C 17.970 48.681,15.436 55.238,14.974 57.864 C 13.331 67.197,16.710 73.501,23.959 74.628 C 26.964 75.095,28.212 77.014,27.995 80.834 C 27.834 83.675,27.200 84.608,23.959 86.776 C 19.874 89.510,19.123 90.402,18.197 93.619 C 17.660 95.482,17.277 95.763,15.007 95.955 C 10.915 96.301,10.852 99.257,14.904 100.805 C 17.012 101.611,18.680 103.250,20.174 105.984 C 20.519 106.614,21.375 108.007,22.078 109.080 C 22.780 110.152,23.621 111.688,23.947 112.492 C 24.273 113.297,25.264 115.014,26.150 116.308 C 28.625 119.928,29.729 122.306,30.141 124.911 C 30.406 126.586,30.687 127.441,31.307 128.458 C 31.756 129.196,32.358 130.589,32.644 131.554 C 33.702 135.123,36.484 137.115,38.856 136.000 C 40.115 135.408,40.451 134.819,41.163 131.945 C 41.734 129.642,42.315 128.402,43.724 126.474 C 44.277 125.718,45.032 124.567,45.404 123.915 C 47.653 119.964,48.494 118.981,50.485 117.968 C 53.185 116.595,53.820 115.295,54.123 110.524 C 54.397 106.188,55.817 102.129,58.635 97.623 C 59.380 96.432,59.281 94.957,58.359 93.542 C 58.032 93.040,57.499 92.028,57.174 91.293 C 56.362 89.457,55.325 88.238,53.287 86.723 C 52.334 86.015,51.233 85.052,50.840 84.583 C 50.447 84.113,49.173 82.793,48.008 81.648 C 45.327 79.012,45.138 78.632,44.875 75.361 C 44.525 71.012,44.391 70.933,37.350 70.931 C 25.787 70.928,23.458 68.101,25.106 56.067 C 26.688 44.515,30.708 38.656,37.882 37.449 C 39.409 37.192,40.989 36.731,42.178 36.194 C 45.242 34.810,46.708 35.164,49.069 37.858 C 50.370 39.342,51.676 41.804,51.676 42.773 C 51.676 42.976,52.619 44.096,53.771 45.261 C 56.722 48.245,56.841 48.775,55.473 52.838 C 55.014 54.200,54.510 55.949,54.352 56.725 C 53.852 59.173,52.837 60.711,49.946 63.398 C 46.488 66.611,45.770 69.017,47.362 72.055 C 48.931 75.049,50.942 74.358,55.496 69.259 C 59.642 64.617,60.084 64.026,60.849 62.099 C 61.208 61.195,61.962 59.915,62.526 59.255 C 63.235 58.425,63.602 57.732,63.718 57.009 C 64.100 54.623,65.402 53.553,67.123 54.210 C 68.956 54.910,69.306 57.065,68.294 61.426 C 67.707 63.956,69.462 66.629,70.734 65.143 C 71.320 64.459,72.599 60.225,72.780 58.373 C 73.082 55.283,73.892 54.357,76.295 54.357 C 79.737 54.357,80.352 55.883,79.132 61.386 C 78.412 64.632,78.490 65.780,79.467 66.303 C 81.481 67.381,83.603 64.144,83.613 59.981 C 83.619 57.279,84.000 56.196,85.419 54.845 L 86.315 53.991 90.019 53.916 C 92.056 53.874,94.362 53.941,95.142 54.065 C 96.017 54.203,97.465 54.200,98.920 54.056 C 100.466 53.904,102.501 53.910,104.820 54.075 L 108.361 54.327 110.733 55.561 C 112.936 56.706,113.233 56.795,114.871 56.803 C 119.212 56.822,122.891 58.127,126.737 61.013 C 127.666 61.709,129.070 62.527,129.858 62.829 C 131.906 63.616,133.910 65.468,134.440 67.061 L 134.852 68.302 134.145 69.313 C 133.614 70.070,133.165 70.404,132.349 70.646 C 131.751 70.823,129.945 71.410,128.336 71.950 C 126.728 72.491,124.369 73.234,123.096 73.602 C 121.822 73.970,119.885 74.671,118.790 75.161 C 115.975 76.421,114.968 76.307,111.127 74.293 C 106.849 72.049,104.332 74.480,108.221 77.099 C 112.290 79.839,113.114 84.061,109.442 83.352 C 107.604 82.998,106.820 83.090,105.237 83.848 C 104.401 84.248,103.844 84.578,103.998 84.579 C 104.153 84.581,104.756 85.018,105.339 85.549 C 105.922 86.081,106.887 86.946,107.484 87.472 C 108.966 88.775,108.776 89.890,106.886 90.989 C 103.247 93.104,103.590 94.645,107.882 95.450 C 111.920 96.207,110.105 101.632,104.643 105.134 C 101.836 106.932,101.533 109.010,103.942 109.926 C 104.993 110.325,106.352 109.694,108.105 107.993 C 108.909 107.213,110.016 106.297,110.565 105.959 C 111.114 105.620,112.376 104.522,113.369 103.518 C 119.310 97.509,121.912 100.867,116.554 107.629 C 114.028 110.818,111.708 115.124,111.331 117.326 C 110.677 121.147,113.509 122.883,115.649 119.973 C 116.112 119.344,116.726 118.556,117.014 118.221 C 117.302 117.885,117.803 117.090,118.127 116.453 C 118.999 114.741,119.528 114.985,120.898 117.733 C 123.380 122.713,126.585 119.477,127.230 111.340 C 127.538 107.456,127.511 107.282,126.216 104.669 C 124.829 101.871,125.616 100.833,129.145 100.806 C 131.502 100.788,131.913 101.207,131.856 103.576 C 131.782 106.624,132.186 112.983,132.512 113.916 C 134.408 119.337,139.735 118.348,139.717 112.579 C 139.710 110.273,139.559 109.833,137.596 106.399 C 137.136 105.594,136.522 104.223,136.232 103.352 C 135.942 102.480,135.550 101.462,135.362 101.089 C 135.038 100.448,135.060 100.368,135.776 99.653 L 136.533 98.896 139.787 99.020 C 143.618 99.166,143.946 99.321,145.498 101.711 C 147.131 104.226,147.202 104.301,148.228 104.577 C 149.422 104.899,150.052 104.580,150.738 103.306 C 151.778 101.374,150.229 98.842,146.521 96.409 C 141.273 92.967,140.930 91.679,142.957 83.022 C 143.149 82.204,143.372 80.809,143.454 79.920 C 143.581 78.545,143.712 78.201,144.335 77.605 L 145.067 76.904 149.377 76.904 C 152.291 76.904,153.963 77.006,154.540 77.219 C 155.009 77.391,156.435 77.598,157.709 77.677 C 161.782 77.932,162.345 78.533,161.684 81.924 C 160.861 86.144,162.462 89.360,164.791 88.169 C 166.731 87.177,167.365 85.401,166.986 82.023 C 166.616 78.721,167.317 77.757,170.089 77.757 C 170.740 77.757,172.299 77.581,173.554 77.366 C 178.278 76.554,179.017 77.101,178.859 81.292 C 178.721 84.926,178.149 86.425,177.020 86.109 C 173.921 85.242,171.460 87.114,172.530 89.525 C 173.084 90.775,173.279 90.935,175.137 91.661 C 177.056 92.411,177.350 92.710,178.043 94.622 C 178.693 96.415,179.318 97.487,179.736 97.530 C 181.184 97.677,182.138 97.144,182.967 95.726 C 185.373 91.610,185.611 88.818,183.851 85.335 C 182.598 82.855,182.548 82.009,183.551 80.261 C 184.784 78.112,185.912 77.844,189.589 78.828 C 193.244 79.806,193.473 80.140,193.169 84.059 C 192.779 89.081,193.111 90.476,194.802 90.933 C 197.221 91.586,198.353 89.534,198.895 83.514 C 199.252 79.544,199.854 79.091,204.753 79.106 C 209.724 79.121,210.748 80.755,209.023 85.923 C 207.571 90.278,207.710 92.773,209.458 93.714 L 210.295 94.165 211.393 93.377 C 212.636 92.484,212.692 92.391,213.902 89.214 C 214.490 87.670,214.871 86.141,215.045 84.626 C 215.456 81.060,216.845 79.746,220.438 79.523 C 225.271 79.224,227.131 81.899,225.865 87.328 C 224.325 93.928,224.306 96.241,225.781 97.343 L 226.448 97.841 227.362 97.325 C 228.607 96.621,229.015 95.835,229.584 93.039 C 229.915 91.413,230.303 90.284,230.798 89.505 C 231.198 88.876,231.865 87.259,232.280 85.912 C 233.755 81.131,235.096 79.565,238.055 79.170 C 242.849 78.529,244.587 79.920,242.684 82.876 C 241.514 84.695,239.878 88.469,239.612 89.965 C 239.459 90.825,238.874 92.517,238.314 93.723 C 236.035 98.626,237.717 103.421,240.967 101.291 C 241.957 100.642,243.334 96.848,244.465 91.651 C 244.954 89.407,246.956 84.445,248.056 82.754 C 251.008 78.214,251.331 77.970,254.711 77.740 C 255.991 77.653,258.007 77.434,259.192 77.252 C 262.005 76.822,262.794 77.170,263.804 79.289 C 264.173 80.065,264.647 80.764,264.855 80.845 C 265.289 81.011,268.310 80.250,268.512 79.923 C 268.813 79.436,269.396 79.763,269.758 80.622 C 270.961 83.473,269.931 89.601,267.238 95.620 C 265.715 99.023,265.553 103.299,266.895 104.658 C 267.494 105.264,269.383 105.481,269.791 104.990 C 270.856 103.707,273.565 96.800,273.975 94.323 C 274.141 93.323,274.621 91.627,275.042 90.555 C 276.200 87.605,276.183 83.715,275.002 81.459 C 273.663 78.900,273.745 76.585,275.203 75.805 C 275.787 75.492,291.649 74.991,299.452 75.038 C 332.450 75.237,330.803 75.113,332.434 77.520 C 334.305 80.281,332.230 95.471,329.675 97.714 C 328.316 98.908,327.913 100.445,328.675 101.533 C 331.651 105.782,328.313 109.186,322.486 107.845 C 319.809 107.228,316.184 107.111,314.764 107.594 C 314.078 107.828,312.793 107.985,311.535 107.988 C 308.935 107.995,308.359 108.338,308.172 109.989 C 308.000 111.523,308.695 112.013,310.728 111.789 C 314.243 111.401,315.662 111.355,316.776 111.592 C 318.269 111.909,319.765 111.655,322.294 110.653 L 324.173 109.909 326.072 110.668 C 329.148 111.897,330.172 113.373,330.450 116.976 C 330.626 119.254,330.473 119.427,327.849 119.920 C 324.412 120.565,324.026 121.259,325.685 123.808 C 327.795 127.050,325.610 132.437,323.153 130.050 C 321.585 128.527,317.057 127.430,314.355 127.919 C 313.532 128.068,312.119 128.317,311.216 128.473 C 306.842 129.227,305.109 133.128,309.313 132.755 C 310.190 132.677,313.486 132.454,316.636 132.261 C 319.787 132.067,322.766 131.775,323.257 131.611 C 324.395 131.233,324.863 131.421,325.283 132.428 C 325.469 132.872,326.433 134.058,327.426 135.064 C 329.614 137.281,329.549 136.999,329.552 144.198 C 329.555 148.546,329.479 149.803,329.156 150.749 C 328.007 154.123,323.851 155.758,320.262 154.250 C 318.928 153.690,317.910 153.459,316.160 153.320 C 313.080 153.074,312.050 152.767,309.977 151.477 C 307.916 150.195,307.658 150.175,305.609 151.134 C 303.698 152.028,303.543 151.979,302.554 150.181 C 300.714 146.833,294.140 146.335,290.799 149.291 C 290.598 149.469,289.336 150.182,287.995 150.876 C 285.761 152.031,285.060 152.466,282.142 154.507 C 280.991 155.311,278.887 158.618,278.243 160.634 C 278.008 161.371,277.418 162.624,276.933 163.419 C 274.840 166.847,276.749 171.725,280.804 173.308 C 281.542 173.596,282.989 174.260,284.020 174.784 C 286.488 176.037,287.462 176.174,288.726 175.442 C 290.893 174.189,290.761 172.756,288.092 168.576 C 285.239 164.108,285.249 163.838,288.522 157.072 C 290.507 152.968,293.525 151.973,297.731 154.036 C 301.814 156.040,303.611 157.939,304.962 161.681 C 305.349 162.752,305.757 163.750,305.869 163.898 C 305.981 164.047,306.218 164.552,306.396 165.021 C 306.574 165.491,307.346 167.246,308.111 168.921 C 308.877 170.597,309.571 172.297,309.653 172.700 C 309.881 173.816,310.542 181.914,310.542 183.586 C 310.542 184.399,310.752 185.957,311.009 187.048 C 311.265 188.139,311.547 190.238,311.635 191.712 C 311.722 193.187,311.894 195.052,312.016 195.856 C 312.137 196.661,312.304 198.909,312.385 200.853 C 312.533 204.372,312.538 204.398,313.595 206.722 C 315.138 210.116,315.417 211.609,315.417 216.457 C 315.417 226.475,320.428 230.032,324.313 222.772 C 324.498 222.427,324.811 221.215,325.009 220.080 C 325.254 218.677,325.606 217.629,326.106 216.808 C 327.071 215.226,328.434 211.511,329.325 208.030 C 329.718 206.496,330.297 204.500,330.612 203.595 C 330.926 202.690,331.379 201.150,331.617 200.172 C 331.855 199.194,332.651 197.170,333.384 195.674 C 334.118 194.178,334.969 192.291,335.276 191.480 C 336.579 188.038,337.690 185.572,338.350 184.652 C 338.738 184.111,339.330 182.724,339.664 181.569 C 339.999 180.414,340.828 178.281,341.506 176.828 C 343.341 172.899,343.754 171.031,343.791 166.484 C 343.831 161.705,344.414 160.637,346.984 160.634 C 348.074 160.633,350.473 159.593,351.620 158.624 C 354.285 156.374,359.436 155.586,361.504 157.112 C 362.624 157.938,365.062 161.627,365.259 162.792 C 365.504 164.244,364.937 165.313,363.397 166.301 C 359.945 168.515,359.016 170.058,359.024 173.565 C 359.030 176.217,359.610 177.243,361.566 178.060 C 363.164 178.728,364.157 178.079,368.748 173.364 C 373.500 168.484,375.150 165.590,375.223 162.003 C 375.279 159.273,372.022 153.804,369.255 151.980 C 368.644 151.578,367.741 150.893,367.247 150.459 C 365.401 148.834,365.079 148.766,359.479 148.814 L 354.424 148.857 349.985 151.028 L 345.546 153.199 341.975 153.199 C 336.530 153.199,336.746 153.607,336.746 143.327 C 336.746 133.080,337.050 132.110,340.001 132.938 C 343.080 133.802,345.898 133.254,347.346 131.509 C 348.362 130.284,344.529 129.345,341.501 130.076 C 339.183 130.635,338.168 130.169,337.533 128.253 C 336.235 124.339,339.636 120.668,342.979 122.373 C 345.795 123.810,349.587 124.321,352.661 123.678 C 353.960 123.406,355.190 123.325,356.644 123.416 C 359.060 123.567,359.563 123.357,360.152 121.949 C 360.578 120.927,360.388 120.572,359.205 120.182 C 358.362 119.904,345.761 119.998,342.439 120.307 C 340.224 120.514,339.999 120.350,339.132 117.909 C 338.268 115.474,338.551 113.714,340.191 111.319 C 341.508 109.397,341.496 108.854,340.083 106.690 C 338.198 103.802,337.781 99.369,338.979 94.942 C 339.281 93.824,339.411 91.757,339.530 86.167 C 339.697 78.358,339.748 78.044,340.958 77.421 C 343.806 75.957,351.219 74.668,353.445 75.250 C 354.060 75.411,356.157 74.769,358.458 73.716 C 360.432 72.813,363.476 72.154,365.684 72.152 C 366.803 72.151,366.862 72.189,367.858 73.553 C 368.422 74.324,369.398 75.558,370.027 76.295 C 371.893 78.479,373.912 81.036,373.915 81.218 C 373.925 81.736,376.738 83.364,377.625 83.364 C 381.411 83.364,380.265 78.511,375.344 73.704 C 371.663 70.109,371.685 70.138,371.770 68.960 C 371.859 67.709,372.566 67.379,373.351 68.222 C 374.414 69.363,382.607 72.345,383.446 71.896 C 383.995 71.602,384.724 70.284,384.519 69.954 C 384.102 69.278,381.000 67.401,379.235 66.757 C 374.684 65.096,374.834 62.654,379.525 62.034 C 381.992 61.709,383.181 60.709,383.181 58.960 C 383.181 56.376,380.489 55.956,377.549 58.081 C 375.981 59.214,371.481 59.105,371.481 57.934 C 371.481 57.480,374.334 54.776,375.382 54.237 C 375.851 53.995,377.044 53.238,378.034 52.554 C 379.023 51.870,380.198 51.065,380.644 50.765 C 384.012 48.498,381.226 45.509,377.630 47.530 C 376.027 48.431,374.578 48.161,374.369 46.923 C 374.183 45.814,374.334 45.507,376.156 43.315 C 379.052 39.828,376.478 36.780,373.387 40.037 C 372.719 40.740,371.948 41.810,371.674 42.413 C 371.035 43.818,369.572 46.279,368.963 46.972 C 368.704 47.268,368.243 48.563,367.940 49.850 C 367.146 53.217,366.266 53.794,363.520 52.745 C 362.509 52.359,362.447 52.366,360.394 53.109 C 357.366 54.205,355.904 53.802,355.500 51.762 C 355.080 49.641,355.544 41.362,356.190 39.448 C 356.537 38.420,356.780 37.378,356.731 37.132 C 356.682 36.886,356.577 36.380,356.498 36.007 C 355.952 33.422,352.276 34.369,351.499 37.294 C 351.339 37.898,350.926 39.287,350.583 40.381 C 349.818 42.819,349.894 46.328,350.771 48.995 C 351.781 52.069,351.439 53.646,349.471 54.997 C 347.316 56.475,346.618 55.545,346.618 51.198 C 346.618 46.787,345.487 41.826,344.305 41.052 C 341.240 39.044,338.589 42.734,340.274 46.663 C 340.625 47.482,340.793 48.592,340.898 50.767 C 341.088 54.711,341.068 54.645,342.603 56.315 C 343.337 57.113,343.937 57.818,343.937 57.882 C 343.937 58.413,342.547 60.859,341.541 62.098 C 340.860 62.938,339.857 64.481,339.312 65.528 C 336.566 70.807,333.717 71.849,328.143 69.614 L 325.879 68.706 325.008 69.470 C 322.147 71.982,317.367 70.703,317.367 67.425 C 317.367 66.565,317.636 65.756,318.482 64.073 C 319.248 62.546,319.812 60.931,320.289 58.898 C 320.670 57.272,321.210 55.294,321.490 54.502 C 322.209 52.467,322.155 51.627,321.240 50.585 C 319.273 48.344,316.027 49.909,314.934 53.626 C 314.638 54.631,314.090 56.002,313.717 56.673 C 312.971 58.010,312.811 58.611,311.767 63.971 C 310.542 70.255,308.797 71.699,304.752 69.771 C 302.002 68.461,301.638 64.497,303.928 60.784 C 306.993 55.813,308.091 52.187,306.894 50.990 C 305.660 49.756,304.229 50.184,301.885 52.490 C 299.928 54.415,296.582 61.806,296.141 65.179 C 295.818 67.651,295.076 68.766,293.108 69.735 L 291.522 70.515 290.496 70.054 C 288.956 69.361,284.356 69.422,282.563 70.159 C 280.710 70.920,275.241 70.940,273.647 70.191 C 270.984 68.939,270.783 67.683,272.782 64.796 C 275.692 60.597,277.584 52.915,276.155 51.099 C 274.159 48.562,269.856 53.759,268.501 60.344 C 268.282 61.408,267.633 63.321,267.058 64.595 C 266.484 65.868,265.873 67.268,265.700 67.706 C 264.845 69.872,259.791 72.373,256.236 72.389 C 252.377 72.406,250.712 68.357,253.099 64.761 C 253.613 63.986,254.532 62.397,255.141 61.231 C 255.750 60.065,256.665 58.397,257.174 57.526 C 258.577 55.126,258.662 53.941,257.523 52.679 C 254.823 49.691,251.362 52.132,249.371 58.429 C 248.998 59.608,248.157 61.670,247.503 63.010 L 246.313 65.448 246.377 68.785 L 246.440 72.122 245.623 72.746 C 244.891 73.304,244.583 73.370,242.695 73.370 L 240.584 73.370 239.591 72.346 C 237.622 70.317,236.928 65.546,238.327 63.654 C 242.251 58.347,242.821 53.970,239.677 53.293 C 238.179 52.971,235.297 54.815,234.014 56.917 C 232.480 59.429,231.077 66.918,231.700 69.261 C 232.596 72.624,230.483 74.968,227.025 74.449 C 225.126 74.164,221.816 70.044,221.816 67.965 C 221.816 67.012,224.297 59.930,225.346 57.892 C 226.626 55.402,226.662 54.514,225.529 53.321 C 223.796 51.494,220.438 53.546,219.480 57.020 C 219.274 57.767,218.789 59.092,218.403 59.963 C 218.016 60.835,217.526 62.559,217.314 63.796 C 217.034 65.429,216.704 66.428,216.107 67.452 C 215.655 68.227,215.109 69.412,214.892 70.087 C 213.809 73.469,211.874 74.204,208.890 72.368 C 208.213 71.951,207.149 71.457,206.526 71.269 C 204.682 70.714,204.266 70.335,204.266 69.213 C 204.266 67.731,205.606 63.531,206.620 61.835 C 207.116 61.007,207.821 59.835,208.187 59.232 C 210.012 56.228,209.525 53.138,207.227 53.138 C 205.835 53.138,204.357 54.598,202.709 57.600 C 202.356 58.245,201.855 59.067,201.596 59.429 C 200.958 60.321,200.202 63.009,199.789 65.856 C 199.367 68.769,198.663 70.194,197.436 70.614 C 195.998 71.107,185.971 71.034,184.899 70.523 C 183.195 69.711,182.829 66.724,184.038 63.498 C 186.318 57.412,183.305 51.656,179.596 55.012 C 178.812 55.722,178.612 57.089,178.493 62.553 C 178.304 71.261,177.932 71.487,164.534 71.040 C 162.188 70.961,157.756 70.869,154.685 70.833 L 149.102 70.770 148.348 69.916 C 147.933 69.446,147.208 68.524,146.738 67.867 C 145.622 66.309,145.276 66.273,144.423 67.622 C 144.042 68.225,143.590 68.773,143.419 68.838 C 142.929 69.026,141.209 66.772,140.268 64.705 C 139.795 63.668,138.963 62.314,138.418 61.696 C 137.113 60.216,136.862 59.679,136.523 57.648 C 135.668 52.534,134.202 49.455,132.792 49.809 C 131.886 50.036,131.140 51.365,131.140 52.750 C 131.140 54.769,129.746 56.587,128.696 55.938 C 128.318 55.704,127.595 53.963,127.382 52.773 C 127.286 52.236,126.932 50.920,126.596 49.848 C 125.281 45.659,126.017 42.612,129.270 38.778 C 130.468 37.366,129.960 35.299,128.341 34.996 C 126.353 34.623,124.022 36.618,121.810 40.585 C 120.311 43.275,120.122 43.893,120.056 46.332 C 119.936 50.818,118.037 51.992,114.817 49.572 C 111.747 47.264,111.665 44.150,114.556 39.744 C 116.983 36.044,117.209 33.437,115.168 32.661 C 114.655 32.466,113.207 32.662,112.658 33.001 C 112.271 33.241,110.164 36.320,109.899 37.034 C 109.771 37.378,108.964 39.086,108.106 40.829 C 107.248 42.572,106.470 44.436,106.379 44.973 C 105.833 48.156,104.508 48.860,101.323 47.661 L 99.724 47.060 92.458 47.197 C 86.378 47.312,84.911 47.410,83.470 47.799 C 79.488 48.873,78.487 48.148,78.491 44.192 C 78.493 42.111,79.107 39.024,80.040 36.405 C 80.552 34.966,80.174 33.571,79.088 32.900 C 75.064 30.413,70.908 40.480,74.149 44.863 C 75.441 46.611,74.117 47.222,69.804 46.868 C 64.952 46.470,64.225 45.572,65.219 41.201 C 65.820 38.559,63.893 35.873,60.403 34.488 C 59.413 34.095,58.117 33.294,57.112 32.454 C 54.101 29.935,54.271 30.007,50.410 29.610 C 48.492 29.412,46.210 29.108,45.338 28.934 C 44.467 28.760,43.534 28.662,43.266 28.715 M103.291 30.043 C 100.734 32.801,100.204 33.676,99.590 36.153 C 99.273 37.434,98.838 38.732,98.623 39.039 C 98.132 39.741,98.098 41.646,98.575 41.828 C 99.093 42.027,100.856 41.031,101.046 40.432 C 101.138 40.142,101.613 39.454,102.102 38.904 C 103.814 36.977,104.980 35.456,105.671 34.247 C 106.055 33.577,106.567 32.767,106.810 32.447 C 107.324 31.771,107.423 29.519,106.959 29.055 C 106.166 28.262,104.535 28.701,103.291 30.043 M365.202 35.329 C 363.615 36.324,362.867 38.549,363.436 40.582 C 364.235 43.435,366.550 42.717,368.414 39.040 C 369.838 36.229,367.702 33.762,365.202 35.329 M138.574 42.382 C 135.806 44.101,135.636 46.813,138.296 46.793 C 139.490 46.784,139.806 46.567,140.852 45.036 C 141.759 43.709,141.660 43.215,140.326 42.401 C 139.381 41.825,139.468 41.826,138.574 42.382 M38.635 46.879 C 36.914 47.302,34.012 49.514,33.254 50.981 C 31.025 55.291,38.524 61.585,43.101 59.246 C 46.954 57.276,48.639 50.779,45.748 49.033 C 42.461 47.046,40.444 46.435,38.635 46.879 M331.000 48.711 C 329.105 50.606,329.774 52.946,333.256 56.613 C 335.829 59.322,337.764 59.596,338.689 57.383 C 339.248 56.046,339.164 55.656,337.918 53.771 C 337.288 52.820,336.522 51.654,336.215 51.180 C 335.382 49.897,333.941 48.581,332.889 48.143 L 331.957 47.754 331.000 48.711 M286.709 49.058 C 285.826 49.998,285.239 51.701,284.967 54.113 C 284.631 57.081,283.597 60.094,281.768 63.434 C 281.280 64.324,282.313 65.814,283.417 65.814 C 286.180 65.814,290.200 60.821,290.673 56.802 C 290.759 56.068,291.047 54.673,291.314 53.702 C 291.906 51.542,291.658 50.346,290.382 49.227 C 289.307 48.282,287.515 48.200,286.709 49.058 M145.925 53.490 C 145.374 54.001,145.303 54.193,145.517 54.593 C 146.168 55.809,147.517 55.760,148.194 54.495 C 148.942 53.096,147.188 52.319,145.925 53.490 M190.295 56.193 C 187.781 58.768,187.064 64.381,188.982 66.484 C 190.074 67.682,192.200 66.066,192.910 63.498 C 193.132 62.693,193.704 61.186,194.181 60.147 C 196.197 55.763,193.447 52.965,190.295 56.193 M157.398 55.702 C 156.490 56.019,155.229 56.349,154.595 56.435 C 149.556 57.116,149.407 59.950,154.165 64.593 L 155.287 65.687 156.437 65.080 C 158.985 63.734,161.495 56.816,159.903 55.527 C 159.255 55.002,159.435 54.990,157.398 55.702 M168.355 57.400 C 166.403 58.419,164.788 62.062,165.549 63.732 C 166.427 65.660,169.304 64.385,171.382 61.147 C 173.084 58.494,171.060 55.989,168.355 57.400 M327.406 59.598 C 324.336 62.181,325.594 66.136,329.300 65.550 C 333.107 64.948,334.638 62.721,332.578 60.778 C 330.756 59.059,328.624 58.573,327.406 59.598 M360.233 59.257 C 360.977 59.516,361.038 59.624,361.355 61.234 C 361.494 61.946,360.494 67.366,360.114 67.958 C 359.451 68.991,358.441 69.389,356.057 69.559 C 354.821 69.648,353.205 69.882,352.468 70.080 C 350.784 70.531,349.941 70.537,349.101 70.103 C 348.737 69.915,347.919 69.683,347.283 69.587 C 343.566 69.030,344.468 65.433,348.954 62.925 C 349.960 62.362,351.380 61.415,352.110 60.821 C 353.287 59.862,353.892 59.586,355.759 59.157 C 356.731 58.934,359.482 58.995,360.233 59.257 M110.429 62.872 C 109.732 64.174,110.375 65.235,111.690 64.954 C 113.225 64.626,113.491 63.987,112.503 62.999 C 111.782 62.278,110.780 62.217,110.429 62.872 M98.227 63.749 C 97.862 64.188,98.259 65.327,98.776 65.325 C 99.188 65.324,100.670 64.412,100.670 64.160 C 100.670 63.392,98.786 63.076,98.227 63.749 M134.552 77.453 C 136.032 78.193,136.292 79.068,136.209 83.029 L 136.137 86.473 135.040 88.618 C 132.023 94.519,125.902 96.672,122.086 93.175 C 120.607 91.821,120.367 83.881,121.735 81.549 C 123.300 78.878,131.902 76.129,134.552 77.453 M363.034 79.086 C 360.649 80.123,362.400 87.014,365.390 88.362 C 366.135 88.698,366.511 88.752,366.810 88.567 C 370.520 86.260,366.979 77.369,363.034 79.086 M353.199 81.976 C 351.688 82.491,351.052 84.761,351.854 86.776 C 352.041 87.246,352.600 88.759,353.096 90.139 C 354.497 94.038,357.107 94.750,357.851 91.435 C 358.299 89.445,356.405 83.680,354.766 82.040 C 354.321 81.595,354.317 81.595,353.199 81.976 M97.428 83.377 C 96.260 84.006,96.073 84.481,96.731 85.139 C 97.827 86.235,102.382 85.732,102.375 84.517 C 102.368 83.426,98.845 82.614,97.428 83.377 M306.655 85.009 C 305.935 85.882,304.936 88.113,304.936 88.849 C 304.936 89.530,304.148 91.547,303.451 92.646 C 301.213 96.181,302.971 99.757,306.142 98.118 C 309.085 96.596,311.471 90.136,310.669 85.862 C 310.292 83.854,308.008 83.369,306.655 85.009 M289.902 86.959 C 286.331 92.482,284.504 97.657,285.465 99.529 C 286.329 101.210,287.610 101.767,289.211 101.159 C 291.452 100.307,293.889 91.488,292.977 87.532 C 292.319 84.678,291.478 84.522,289.902 86.959 M261.720 85.823 C 260.503 86.466,260.107 87.171,258.739 91.130 C 258.107 92.958,257.384 94.862,257.131 95.359 C 256.207 97.181,256.577 99.381,257.925 100.078 C 259.719 101.006,261.342 99.347,261.787 96.133 C 262.004 94.571,262.335 93.457,262.975 92.139 C 264.059 89.908,264.269 86.788,263.399 85.827 C 262.842 85.212,262.879 85.212,261.720 85.823 M318.876 87.371 C 316.969 89.543,317.545 94.942,319.718 95.259 C 321.575 95.529,323.439 89.708,322.106 87.804 C 321.137 86.421,319.860 86.250,318.876 87.371 M154.052 91.530 L 153.224 92.384 154.187 93.379 C 156.461 95.728,158.317 95.694,158.478 93.301 C 158.556 92.142,157.919 91.245,156.797 90.934 C 155.346 90.531,154.934 90.620,154.052 91.530 M94.365 94.272 C 92.540 95.799,93.290 97.989,95.637 97.989 C 97.561 97.989,98.288 96.219,97.112 94.394 C 96.668 93.705,95.124 93.636,94.365 94.272 M343.774 94.035 C 340.420 96.147,341.802 100.483,345.837 100.507 C 348.804 100.524,350.581 99.062,348.689 98.160 C 348.166 97.910,347.515 97.255,347.010 96.469 C 345.749 94.509,344.506 93.574,343.774 94.035 M317.002 99.768 C 314.776 101.029,316.142 102.275,318.924 101.522 C 321.268 100.888,321.575 100.593,320.705 99.818 C 319.816 99.024,318.350 99.004,317.002 99.768 M347.891 107.875 C 346.270 109.010,348.883 111.025,351.371 110.559 C 352.280 110.388,353.121 109.255,352.855 108.559 C 352.487 107.600,348.975 107.116,347.891 107.875 M316.392 117.461 C 314.006 117.953,311.033 120.239,311.402 121.298 C 312.072 123.225,319.296 123.397,321.300 121.532 L 321.941 120.936 321.312 119.665 C 320.445 117.914,318.475 117.031,316.392 117.461 M351.059 129.692 C 350.070 129.887,348.564 130.737,348.572 131.095 C 348.600 132.391,353.495 134.778,356.149 134.791 C 359.507 134.806,360.359 130.578,357.176 129.694 C 356.097 129.395,352.576 129.393,351.059 129.692 M311.152 139.320 C 310.347 139.501,309.177 139.654,308.550 139.660 C 306.220 139.682,305.278 141.258,306.797 142.592 C 307.806 143.478,308.230 143.471,311.030 142.523 C 313.515 141.681,317.318 141.746,318.891 142.657 C 319.528 143.026,320.516 143.596,321.086 143.924 C 323.760 145.463,325.187 144.737,324.757 142.055 C 324.460 140.208,323.915 139.902,320.500 139.663 C 318.978 139.557,317.424 139.350,317.047 139.205 C 316.128 138.850,312.961 138.911,311.152 139.320 M348.080 140.142 C 344.668 140.892,344.363 141.188,346.557 141.617 C 347.328 141.768,348.562 142.148,349.299 142.461 C 352.750 143.928,353.901 143.912,355.586 142.371 C 358.012 140.154,353.765 138.893,348.080 140.142 M363.671 140.219 C 361.800 141.163,363.064 142.766,366.039 143.221 C 367.933 143.511,370.935 141.741,369.870 140.962 C 368.274 139.795,365.235 139.431,363.671 140.219 " stroke="none" fill="#262726" fill-rule="evenodd"></path></g></svg>